<?xml version="1.0" encoding="UTF-8" standalone="no"?>
<svg
   width="1000"
   height="747"
   viewBox="0 0 125.3244 93.600019"
   version="1.1"
   id="svg4"
   sodipodi:docname="baygon.svg"
   inkscape:version="1.4.2 (f4327f4, 2025-05-13)"
   xmlns:inkscape="http://www.inkscape.org/namespaces/inkscape"
   xmlns:sodipodi="http://sodipodi.sourceforge.net/DTD/sodipodi-0.dtd"
   xmlns="http://www.w3.org/2000/svg"
   xmlns:svg="http://www.w3.org/2000/svg">
  <defs
     id="defs4" />
  <sodipodi:namedview
     id="namedview4"
     pagecolor="#505050"
     bordercolor="#eeeeee"
     borderopacity="1"
     inkscape:showpageshadow="0"
     inkscape:pageopacity="0"
     inkscape:pagecheckerboard="0"
     inkscape:deskcolor="#505050"
     inkscape:zoom="0.34882421"
     inkscape:cx="603.45582"
     inkscape:cy="546.12035"
     inkscape:window-width="1920"
     inkscape:window-height="991"
     inkscape:window-x="-9"
     inkscape:window-y="-9"
     inkscape:window-maximized="1"
     inkscape:current-layer="svg4" />
  <g
     fill-rule="evenodd"
     clip-rule="evenodd"
     id="g4"
     transform="matrix(0.4,0,0,0.4,0,-0.0375905)">
    <path
       fill="#cc2229"
       d="M 0,0 155.528,234.188 313.311,0 Z"
       id="path1" />
    <path
       d="m 226.427,30.899 c -0.392,9.59 8.263,-6.527 15.827,3.094 2.087,2.654 1.822,7.083 1.822,12.171 V 80.096 H 233.402 V 46.828 c 0,-2.062 -0.356,-3.627 -1.066,-4.692 -0.712,-1.065 -1.48,-1.637 -2.304,-1.702 -0.037,-0.002 -0.065,0 -0.084,0 h -0.169 c -0.019,0 -0.048,-0.002 -0.084,0 -0.824,0.065 -1.592,0.637 -2.304,1.702 -0.711,1.065 -1.067,2.665 -1.067,4.796 V 80.097 H 215.65 L 215.496,30.9 h 10.931 z m -152.96,9.413 c 12.067,0 10.308,-17.762 0,-17.762 z m 0,30.584 c 12.874,0 10.997,-19.977 0,-19.977 z m 2.585,-57.232 c 17.989,0 24.501,18.845 8.262,31.931 16.681,3.848 13.387,35.686 -7.442,36.024 L 60.264,81.89 V 13.664 Z m 21.52,34.027 c 0.173,-9.891 2.755,-16.71 14.956,-16.531 9.243,0.137 13.268,4.987 12.663,17.353 -0.539,11.009 0.226,22.594 0.226,32.343 h -10.661 l -0.382,-5.031 c -0.655,1.711 -1.147,2.464 -2.601,3.565 -17.909,13.569 -25.631,-30.648 1.374,-30.032 1.923,0.044 0.567,-6.729 -0.173,-8.083 -0.344,-0.627 -1.038,-0.771 -1.802,-0.771 -0.946,0 -1.774,0.257 -2.483,0.771 -0.709,0.514 -1.037,4.621 -1.218,6.401 z M 113.48,72.17 c -9.197,0 -7.857,-15.31 0,-15.31 z m 20.465,-40.298 6.086,21.429 2.636,-21.429 h 10.691 l -9.904,50.809 C 141.02,95.173 133.24,94.197 123.894,94.749 V 85.42 c 6.491,0.484 9.172,-1.136 9.844,-5.329 0.506,-12.333 -5.046,-31.327 -9.48,-48.22 h 9.687 z m 47.097,-0.281 0.155,45.63 c 0.03,8.984 -0.822,16.946 -13.078,18.268 -7.892,0.851 -14.81,-4.577 -14.262,-11.041 0.046,-0.544 -0.197,-1.054 -0.254,-1.556 a 45.478,45.478 0 0 1 -0.14,-1.455 l 11.639,0.155 c 1.069,9.956 5.399,5.124 5.399,0.459 V 76.33 c -21.907,19.301 -25.579,-42.317 -8.752,-45.378 0.266,-0.048 0.551,-0.056 0.817,-0.15 5.271,-1.872 6.938,5.074 7.935,0.79 h 10.541 z m -14.171,6.594 c 1.832,0 3.33,1.755 3.33,3.901 v 25.96 c 0,2.146 -1.498,3.901 -3.33,3.901 -1.831,0 -3.33,-1.755 -3.33,-3.901 v -25.96 c 0,-2.146 1.499,-3.901 3.33,-3.901 z m 30.849,-8.518 c 0.389,0.066 0.769,0.116 1.139,0.148 0.369,0.034 0.729,0.083 1.08,0.15 3.349,0.597 6.434,2.769 9.257,6.516 2.822,3.746 4.332,9.665 4.526,17.756 v 1.293 c 0,8.157 -1.48,14.159 -4.439,18.005 -2.959,3.846 -6.209,5.968 -9.753,6.366 -0.233,0.066 -0.467,0.1 -0.7,0.1 h -1.693 c -3.738,-0.332 -7.174,-2.437 -10.309,-6.317 -3.134,-3.879 -4.701,-10.361 -4.701,-19.447 0,-7.029 1.101,-12.352 3.301,-15.965 2.199,-3.615 4.623,-6.051 7.27,-7.312 a 13.328,13.328 0 0 1 2.57,-0.896 10.894,10.894 0 0 1 2.453,-0.298 v -0.099 z m 0.395,8.983 c -1.077,0 -1.91,1.208 -2.494,3.625 -0.586,2.417 -0.975,5.039 -1.165,7.866 a 81.76,81.76 0 0 0 -0.073,1.916 86.788,86.788 0 0 0 0.027,4.721 c 0.033,0.957 0.095,1.938 0.19,2.94 0.225,2.918 0.642,5.61 1.26,8.072 0.618,2.462 1.482,3.693 2.588,3.693 1.107,0 1.933,-1.231 2.47,-3.693 0.537,-2.462 0.887,-5.154 1.046,-8.072 0.062,-1.002 0.104,-1.983 0.121,-2.94 0.014,-0.958 0.021,-1.893 0.021,-2.805 0,-0.639 -0.008,-1.276 -0.021,-1.916 a 81.968,81.968 0 0 0 -0.073,-1.916 c -0.159,-2.827 -0.538,-5.449 -1.143,-7.866 -0.6,-2.417 -1.518,-3.625 -2.754,-3.625 z m 51.205,-9.657 a 4.54,4.54 0 0 1 2.211,0.578 4.146,4.146 0 0 1 1.665,1.651 c 0.403,0.719 0.605,1.47 0.605,2.253 0,0.78 -0.198,1.525 -0.593,2.232 a 4.242,4.242 0 0 1 -1.657,1.656 4.517,4.517 0 0 1 -2.231,0.592 c -0.78,0 -1.524,-0.197 -2.232,-0.592 -0.707,-0.396 -1.261,-0.949 -1.656,-1.656 -0.395,-0.707 -0.593,-1.452 -0.593,-2.232 0,-0.783 0.201,-1.534 0.605,-2.253 a 4.147,4.147 0 0 1 1.663,-1.651 4.556,4.556 0 0 1 2.213,-0.578 z m 0.006,0.88 c -0.617,0 -1.208,0.153 -1.773,0.461 a 3.366,3.366 0 0 0 -1.336,1.328 3.629,3.629 0 0 0 -0.489,1.814 c 0,0.629 0.16,1.228 0.478,1.797 0.317,0.569 0.761,1.015 1.33,1.334 0.569,0.319 1.166,0.479 1.791,0.479 a 3.61,3.61 0 0 0 1.793,-0.479 3.425,3.425 0 0 0 1.33,-1.334 3.622,3.622 0 0 0 0.479,-1.797 c 0,-0.632 -0.161,-1.236 -0.487,-1.814 -0.325,-0.577 -0.772,-1.02 -1.34,-1.328 -0.568,-0.308 -1.161,-0.461 -1.776,-0.461 z m -2.03,6 v -4.755 h 0.966 c 0.904,0 1.412,0.004 1.52,0.012 0.32,0.026 0.569,0.09 0.747,0.189 0.178,0.099 0.326,0.252 0.443,0.456 0.12,0.206 0.18,0.433 0.18,0.683 0,0.341 -0.111,0.635 -0.337,0.879 -0.224,0.245 -0.539,0.395 -0.944,0.455 0.143,0.054 0.255,0.114 0.333,0.178 a 2.3,2.3 0 0 1 0.321,0.365 c 0.036,0.046 0.152,0.239 0.352,0.579 l 0.562,0.958 h -1.192 l -0.399,-0.771 c -0.268,-0.519 -0.491,-0.847 -0.667,-0.98 -0.174,-0.134 -0.397,-0.201 -0.667,-0.201 h -0.25 v 1.953 z m 0.966,-2.702 h 0.392 c 0.557,0 0.902,-0.022 1.039,-0.064 a 0.605,0.605 0 0 0 0.316,-0.226 0.593,0.593 0 0 0 0.118,-0.365 0.577,0.577 0 0 0 -0.114,-0.354 0.622,0.622 0 0 0 -0.324,-0.224 c -0.141,-0.043 -0.486,-0.066 -1.035,-0.066 h -0.392 z m -90.36,73.254 c 10.66,0 19.354,8.695 19.354,19.356 0,10.66 -8.694,19.354 -19.354,19.354 -10.66,0 -19.355,-8.693 -19.355,-19.354 0,-10.66 8.695,-19.356 19.355,-19.356 z m 0,-1.708 c 11.602,0 21.063,9.463 21.063,21.064 0,11.602 -9.462,21.062 -21.063,21.062 -11.601,0 -21.063,-9.461 -21.063,-21.062 0,-11.601 9.462,-21.064 21.063,-21.064 z"
       fill="#ffffff"
       id="path2" />
    <path
       d="m 143.457,129.133 h -3.589 v -6.705 h 3.921 c 0.506,0 0.934,0.072 1.283,0.213 0.349,0.143 0.613,0.336 0.794,0.58 0.181,0.244 0.286,0.521 0.316,0.83 0,0.781 -0.322,1.273 -0.963,1.473 0.408,0.123 0.717,0.34 0.921,0.646 0.205,0.307 0.307,0.656 0.307,1.051 a 2.144,2.144 0 0 1 -0.275,0.867 1.788,1.788 0 0 1 -0.595,0.594 2.95,2.95 0 0 1 -0.906,0.34 5.965,5.965 0 0 1 -1.214,0.111 z m -1.983,-5.539 v 1.455 h 2.027 c 0.341,0 0.609,-0.064 0.799,-0.197 0.19,-0.133 0.285,-0.309 0.285,-0.531 0,-0.236 -0.083,-0.418 -0.25,-0.541 -0.165,-0.123 -0.476,-0.186 -0.934,-0.186 z m 0,4.39 h 2.118 c 0.342,0 0.623,-0.072 0.838,-0.215 0.218,-0.143 0.336,-0.375 0.356,-0.697 0,-0.326 -0.118,-0.557 -0.356,-0.688 a 1.659,1.659 0 0 0 -0.818,-0.197 h -2.138 z m 5.781,1.149 2.825,-6.705 h 1.929 l 2.814,6.705 h -1.815 l -0.5,-1.379 h -2.938 l -0.565,1.379 z m 3.755,-5.192 -1.006,2.664 h 2.027 l -0.997,-2.664 z m 5.936,5.192 v -2.527 l -2.746,-4.178 h 1.937 l 1.673,2.92 1.551,-2.92 h 1.907 l -2.66,4.188 v 2.518 h -1.662 z m 5.316,0 v -6.705 h 5.861 v 1.186 h -4.233 v 1.426 h 3.891 v 1.176 h -3.891 v 1.734 h 4.413 v 1.184 h -6.041 z m 7.4,0 v -6.705 h 4.043 c 0.548,0 1.01,0.09 1.383,0.27 0.373,0.178 0.65,0.41 0.829,0.695 0.179,0.283 0.273,0.586 0.282,0.908 0,0.246 -0.048,0.477 -0.142,0.699 -0.095,0.219 -0.235,0.41 -0.421,0.57 -0.187,0.16 -0.409,0.279 -0.669,0.355 0.404,0.107 0.672,0.287 0.803,0.533 0.132,0.246 0.196,0.564 0.196,0.957 v 0.281 c 0,0.131 -0.008,0.232 -0.022,0.307 0.015,0.297 0.047,0.52 0.095,0.67 a 0.366,0.366 0 0 0 0.293,0.271 v 0.188 h -1.839 a 2.142,2.142 0 0 1 -0.129,-0.492 4.754,4.754 0 0 1 -0.051,-0.586 c -0.005,-0.209 -0.013,-0.408 -0.02,-0.6 -0.011,-0.227 -0.039,-0.402 -0.085,-0.525 -0.046,-0.123 -0.157,-0.223 -0.33,-0.301 -0.174,-0.078 -0.445,-0.115 -0.812,-0.115 h -1.776 v 2.619 h -1.628 z m 1.628,-3.75 h 2.071 c 0.436,0 0.74,-0.08 0.916,-0.244 0.173,-0.162 0.261,-0.393 0.261,-0.688 0,-0.236 -0.088,-0.438 -0.263,-0.605 -0.175,-0.167 -0.463,-0.252 -0.868,-0.252 h -2.117 z m -13.325,-11.442 h -3.589 v -6.704 h 3.922 c 0.506,0 0.934,0.071 1.283,0.213 0.348,0.141 0.612,0.333 0.793,0.58 0.182,0.244 0.286,0.52 0.316,0.83 0,0.781 -0.322,1.272 -0.963,1.473 0.408,0.123 0.717,0.339 0.922,0.646 0.205,0.306 0.307,0.657 0.307,1.052 a 2.135,2.135 0 0 1 -0.275,0.865 1.77,1.77 0 0 1 -0.595,0.594 2.9,2.9 0 0 1 -0.906,0.34 6.055,6.055 0 0 1 -1.215,0.111 z m -1.983,-5.539 v 1.455 h 2.027 c 0.342,0 0.61,-0.065 0.8,-0.197 a 0.617,0.617 0 0 0 0.284,-0.532 c 0,-0.236 -0.083,-0.416 -0.249,-0.541 -0.164,-0.122 -0.477,-0.185 -0.934,-0.185 z m 0,4.39 h 2.118 c 0.342,0 0.622,-0.072 0.839,-0.214 0.217,-0.143 0.335,-0.376 0.356,-0.698 0,-0.327 -0.119,-0.556 -0.356,-0.687 a 1.656,1.656 0 0 0 -0.818,-0.198 h -2.138 v 1.797 z m -2.226,8.796 2.824,-6.704 h 1.93 l 2.813,6.704 h -1.814 l -0.501,-1.379 h -2.937 l -0.565,1.379 z m 3.755,-5.192 -1.007,2.665 h 2.027 l -0.997,-2.665 z m -2.833,20.485 v -6.703 h 5.861 v 1.184 h -4.233 v 1.426 h 3.891 v 1.176 h -3.891 v 1.734 h 4.413 v 1.184 h -6.041 z m 0.029,7.742 v -6.705 h 4.042 c 0.549,0 1.01,0.09 1.383,0.27 0.373,0.178 0.65,0.41 0.829,0.693 0.18,0.283 0.273,0.586 0.282,0.91 0,0.246 -0.048,0.477 -0.143,0.697 -0.094,0.219 -0.233,0.41 -0.42,0.57 a 1.748,1.748 0 0 1 -0.669,0.355 c 0.405,0.109 0.672,0.289 0.804,0.533 0.131,0.248 0.195,0.566 0.195,0.957 v 0.281 c 0,0.131 -0.007,0.234 -0.021,0.307 0.015,0.297 0.046,0.521 0.094,0.672 0.048,0.151 0.146,0.24 0.294,0.271 v 0.188 h -1.839 a 2.118,2.118 0 0 1 -0.13,-0.492 5,5 0 0 1 -0.05,-0.588 c -0.005,-0.207 -0.013,-0.408 -0.02,-0.6 -0.012,-0.227 -0.04,-0.402 -0.086,-0.525 -0.046,-0.123 -0.157,-0.221 -0.33,-0.299 -0.174,-0.078 -0.445,-0.117 -0.812,-0.117 h -1.776 v 2.621 h -1.627 z m 1.627,-3.75 h 2.071 c 0.437,0 0.741,-0.082 0.916,-0.244 0.174,-0.164 0.261,-0.395 0.261,-0.688 a 0.803,0.803 0 0 0 -0.263,-0.605 c -0.175,-0.168 -0.463,-0.252 -0.867,-0.252 h -2.118 z"
       fill="#ffffff"
       id="path3" />
    <path
       d="M 76.727,12.301 304.998,12.285 155.501,234.184 149.179,224.692 284.828,23.057 H 92.686 C 91.228,17.438 83.574,14.106 76.727,12.301 Z"
       fill="#fff22d"
       id="path4" />
  </g>
</svg>
