<?xml version="1.0" encoding="UTF-8" standalone="no"?>
<!-- Created with Inkscape (http://www.inkscape.org/) -->

<svg
   width="1000"
   height="630"
   viewBox="0 0 264.58333 166.6875"
   version="1.1"
   id="svg1"
   inkscape:version="1.4.2 (f4327f4, 2025-05-13)"
   xml:space="preserve"
   sodipodi:docname="bis.svg"
   xmlns:inkscape="http://www.inkscape.org/namespaces/inkscape"
   xmlns:sodipodi="http://sodipodi.sourceforge.net/DTD/sodipodi-0.dtd"
   xmlns="http://www.w3.org/2000/svg"
   xmlns:svg="http://www.w3.org/2000/svg"><sodipodi:namedview
     id="namedview1"
     pagecolor="#000000"
     bordercolor="#ffffff"
     borderopacity="1"
     inkscape:showpageshadow="0"
     inkscape:pageopacity="0"
     inkscape:pagecheckerboard="true"
     inkscape:deskcolor="#000000"
     inkscape:document-units="px"
     inkscape:antialias-rendering="true"
     inkscape:zoom="0.65195245"
     inkscape:cx="603.57163"
     inkscape:cy="457.85548"
     inkscape:window-width="1920"
     inkscape:window-height="991"
     inkscape:window-x="-9"
     inkscape:window-y="-9"
     inkscape:window-maximized="1"
     inkscape:current-layer="Layer1000" /><defs
     id="defs1" /><g
     inkscape:label="Camada 1"
     inkscape:groupmode="layer"
     id="layer1"><g
       id="Layer1000"
       transform="matrix(0.33440355,0,0,0.33440355,-8.4737872,32.760444)"><g
         id="g1"
         transform="translate(2.5092911e-6,-146.37379)"><path
           d="m 93.4011,145.0325 -57.4265,56.363 59.5534,96.7743 -70.188,190.3583 36.1575,58.4899 197.8024,-29.7767 86.1398,-48.9189 23.3959,-45.7285 8.5077,24.4595 121.2337,44.665 -7.4442,-49.9823 144.6298,17.0153 153.1373,-141.4394 -53.1727,-84.0129 -15.9518,-10.6345 2.1269,-8.5076 25.5229,-7.4442 69.1245,-104.2185 -53.1727,-45.7285 -119.1068,23.396 -104.2185,42.5381 4.2538,-32.9671 -52.1092,-41.4747 -147.8201,76.5687 1.0635,28.7133 -41.4747,-20.2056 z"
           style="fill:#004595;fill-rule:evenodd"
           id="path1" /><path
           d="m 483.9573,198.4122 c -23.5467,68.0933 -34.9051,143.8607 -22.17,234.801 -19.517,-7.7263 -39.3748,-15.4532 -53.4097,-23.1778 -14.0525,-55.99 -14.0249,-114.145 -10.5812,-172.8256 40.5239,-10.404 64.5229,-24.348 86.1609,-38.7976 z m 248.8998,-90.718 c -8.0008,17.8019 -16.0016,35.6038 -24.0025,53.4056 -38.7055,0.3426 -78.1711,0.7238 -112.2116,18.602 -32.0544,16.8346 -37.7007,39.6715 7.8008,46.8048 58.1955,9.123 120.1667,13.4372 115.812,56.4059 -5.8534,57.7615 -63.037,91.714 -138.6144,103.8108 -45.2798,7.2477 -81.0079,0.5995 -109.2114,-8.4009 2.5504,-15.652 9.652,-31.954 23.4025,-49.2051 20.6027,11.0006 51.3983,20.8702 90.6094,13.8015 45.0182,-8.1164 60.9565,-30.0073 55.0339,-43.7154 -4.607,-10.6616 -23.6265,-14.2414 -44.8328,-16.2909 -70.0549,-6.7702 -122.0098,-22.1753 -97.2102,-75.0078 29.4101,-62.6564 133.3752,-94.9776 233.4243,-100.2105 z M 212.3185,227.4886 c 0.6704,28.1607 -0.0153,54.554 -2.063,79.1812 17.5209,-7.6729 35.0617,-15.2972 52.4447,-23.2751 32.116,-14.7394 56.3918,-47.2308 11.8887,-57.4617 -19.6079,-4.5078 -40.5075,-3.2889 -62.2704,1.5556 z m -6.6084,117.7823 c -4.5828,29.5092 -11.4622,56.0299 -20.6373,79.569 39.6886,-6.8341 77.9201,-16.2427 102.3708,-42.7118 49.7946,-53.9071 13.8049,-69.6729 -30.6877,-56.1325 -17.4024,5.2961 -34.1812,12.4071 -51.0458,19.2753 z M 104.8732,480.9191 c 22.278,-65.9219 43.0579,-135.5285 42.9429,-231.3837 -4.6186,1.9797 -9.2572,4.0257 -13.9093,6.1191 -10.8979,-12.5491 -21.7959,-25.0982 -32.6938,-37.6473 39.2862,-20.2162 89.1495,-34.4253 154.5522,-38.638 105.8368,-6.8178 130.6148,47.7357 75.2947,105.0162 59.6132,16.4164 69.5362,84.17 -16.8423,144.645 -72.2315,50.5695 -149.3041,53.158 -209.3444,51.8887 z M 687.575,361.4703 c 7.4635,0 13.5522,6.0886 13.5522,13.5527 0,7.4629 -6.0887,13.5521 -13.5522,13.5521 -7.4635,0 -13.5527,-6.0892 -13.5527,-13.5521 0,-7.4641 6.0892,-13.5527 13.5527,-13.5527 z m 0,2.7768 c 5.9349,0 10.7753,4.8404 10.7753,10.7759 0,5.9343 -4.8404,10.7753 -10.7753,10.7753 -5.9349,0 -10.7759,-4.841 -10.7759,-10.7753 0,-5.9355 4.841,-10.7759 10.7759,-10.7759 z m -1.4465,11.817 h -1.1596 v 5.2469 c 0,0.6881 -0.1519,1.1978 -0.4564,1.5245 -0.3038,0.3267 -0.7033,0.4904 -1.1937,0.4904 -0.5243,0 -0.9349,-0.1713 -1.2241,-0.5132 -0.2892,-0.342 -0.4335,-0.84 -0.4335,-1.5017 v -12.5655 c 0,-0.7109 0.1595,-1.2283 0.4792,-1.5474 0.3191,-0.3197 0.8365,-0.4792 1.5474,-0.4792 h 5.3794 c 0.7415,0 1.3767,0.0305 1.9052,0.095 0.5285,0.061 1.0037,0.1901 1.4254,0.3842 0.5133,0.2165 0.9661,0.5244 1.3614,0.9239 0.3913,0.4029 0.6916,0.8669 0.8934,1.3989 0.2053,0.5285 0.3079,1.0911 0.3079,1.6882 0,1.2165 -0.3419,2.1903 -1.0306,2.9164 -0.688,0.7297 -1.7298,1.243 -3.1252,1.5474 0.586,0.3115 1.1485,0.7755 1.6846,1.3837 0.532,0.6083 1.0113,1.2547 1.4295,1.9428 0.4182,0.688 0.7449,1.308 0.9807,1.8594 0.2323,0.5549 0.3496,0.935 0.3496,1.1403 0,0.217 -0.068,0.4293 -0.2053,0.6423 -0.1366,0.2094 -0.3226,0.3766 -0.5625,0.5021 -0.2393,0.1214 -0.5132,0.1824 -0.8247,0.1824 -0.369,0 -0.6845,-0.0874 -0.9356,-0.2622 -0.2511,-0.1748 -0.4675,-0.3953 -0.6499,-0.6616 -0.1824,-0.2664 -0.43,-0.6617 -0.7414,-1.1826 l -1.3269,-2.2049 c -0.4751,-0.8101 -0.9009,-1.426 -1.274,-1.8477 -0.376,-0.4223 -0.7561,-0.7109 -1.1444,-0.8669 -0.3836,-0.1561 -0.8705,-0.2359 -1.4559,-0.2359 z m 1.8935,-6.8622 h -3.0531 v 4.4902 h 2.9616 c 0.7948,0 1.4641,-0.0687 2.0078,-0.2053 0.5397,-0.1373 0.9538,-0.3731 1.2394,-0.7039 0.2851,-0.3303 0.4294,-0.7831 0.4294,-1.3644 0,-0.4528 -0.1138,-0.8517 -0.3461,-1.1978 -0.2282,-0.3461 -0.5472,-0.6047 -0.9578,-0.7754 -0.3842,-0.1637 -1.1444,-0.2434 -2.2812,-0.2434 z"
           style="fill:#ffffff;fill-rule:evenodd"
           id="path2" /><path
           d="m 725.6294,113.6081 -3.2144,0.1689 -8.8038,0.4622 -10.7566,0.8582 -10.6099,1.1326 -10.4515,1.399 -10.2797,1.6512 -10.0961,1.897 -9.9001,2.1292 -9.6931,2.3528 -9.4708,2.5645 -9.2391,2.7668 -8.9933,2.9575 -8.7381,3.1405 -8.4672,3.3089 -8.1856,3.4701 -7.8906,3.618 -7.5855,3.7587 -7.2647,3.8843 -6.9344,4.0034 -6.5896,4.1083 -6.2358,4.2063 -5.8657,4.289 -5.4856,4.3647 -5.0921,4.4269 -4.6884,4.479 -4.2697,4.5178 -3.8403,4.5477 -3.3991,4.5641 -2.9476,4.5706 -2.4829,4.5635 -2.009,4.5453 -1.5228,4.5166 -0.8335,3.611 -0.4827,2.0917 -2.2789,-0.5696 1.3321,-5.7742 1.5967,-4.7266 2.0911,-4.7313 2.571,-4.7242 3.0378,-4.7102 3.4883,-4.6861 3.9295,-4.6521 4.3553,-4.6093 4.7717,-4.5588 5.173,-4.4961 5.5631,-4.4257 5.9396,-4.3441 6.3074,-4.2544 6.6599,-4.1518 7.0013,-4.042 7.3304,-3.9195 7.6501,-3.7904 7.9539,-3.6473 8.2478,-3.496 8.5281,-3.3335 8.798,-3.1616 9.0543,-2.9774 9.2989,-2.7857 9.5307,-2.5797 9.7529,-2.368 9.96,-2.1422 10.157,-1.9075 10.3407,-1.6617 10.5125,-1.4072 10.6721,-1.1397 10.8199,-0.8652 12.1731,-0.6394 z m -406.6019,225.4545 -1.4189,5.8734 -1.3515,4.6368 -1.5485,4.5049 -1.7468,4.3752 -1.9404,4.2433 -2.1363,4.1142 -2.3293,3.984 -2.5222,3.8549 -2.7112,3.7236 -2.9017,3.5963 -3.0895,3.4666 -3.276,3.3399 -3.4608,3.2115 -3.6443,3.086 -3.8274,2.9592 -4.0086,2.8355 -4.187,2.7088 -4.3658,2.5868 -4.5424,2.463 -4.7196,2.3428 -4.8932,2.2207 -5.0674,2.1011 -5.2392,1.9814 -5.4123,1.8642 -5.5812,1.7456 -5.7502,1.6295 -5.9185,1.5139 -6.0874,1.3996 -6.2517,1.2846 -6.4177,1.1726 -6.5807,1.0622 -7.7809,1.094 -0.5725,-2.2912 3.6168,-0.5085 4.3858,-0.6171 6.5338,-1.0517 6.3684,-1.1632 6.2001,-1.274 6.0323,-1.3878 5.861,-1.4987 5.6915,-1.6131 5.519,-1.7257 5.3466,-1.8418 5.1724,-1.9568 4.9982,-2.0718 4.8204,-2.1879 4.6445,-2.3052 4.4662,-2.422 4.2884,-2.541 4.1072,-2.6572 3.9276,-2.778 3.7465,-2.8971 3.5646,-3.0179 3.381,-3.1375 3.1985,-3.2602 3.0133,-3.3822 2.829,-3.5059 2.6431,-3.6297 2.4577,-3.7564 2.2695,-3.882 2.0823,-4.0098 1.8923,-4.1376 1.7034,-4.2685 1.5122,-4.3981 1.3186,-4.5313 0.708,-2.9305 0.7021,-2.9082 z m -165.3052,-92.1269 0.3531,8.554 0.1848,7.4149 0.0657,7.3884 -0.0522,7.365 -0.1666,7.3392 -0.281,7.3163 -0.393,7.2922 -0.5032,7.2694 -0.6095,7.2454 -0.7168,7.223 -0.82,7.2007 -0.9239,7.1803 -1.0224,7.1579 -1.1215,7.1374 -1.2177,7.1163 -1.3133,7.0969 -1.4043,7.0752 -1.4957,7.0571 -1.5844,7.0377 -1.6711,7.02 -1.7556,7.0008 -1.8401,6.9837 -1.9204,6.9655 -2.0002,6.9503 -2.0765,6.9309 -2.1527,6.9163 -2.2266,6.9004 -2.2982,6.8852 -2.3668,6.8699 -2.4355,6.8553 -2.4994,6.8418 -2.9322,7.8019 -2.2935,-0.5736 2.7428,-7.2976 0.2809,-0.7467 2.4936,-6.8212 2.4284,-6.8353 2.3597,-6.8477 2.2912,-6.864 2.2184,-6.877 2.1457,-6.8928 2.0694,-6.9074 1.9932,-6.9245 1.9134,-6.9409 1.833,-6.9568 1.7486,-6.9737 1.6652,-6.9919 1.5773,-7.0096 1.4899,-7.0277 1.3984,-7.0459 1.3075,-7.0664 1.2118,-7.0846 1.1169,-7.1057 1.0177,-7.1251 0.9191,-7.1474 0.8165,-7.1667 0.7133,-7.189 0.6071,-7.2102 0.5009,-7.2342 0.3907,-7.2558 0.2798,-7.28 0.1654,-7.3028 0.0522,-7.3274 -0.0657,-7.351 -0.1742,-6.9233 -0.0117,-0.454 -0.3561,-8.6314 z m 153.8395,2.7012 -0.5807,3.2256 -0.5684,2.1732 -0.7367,2.1533 -0.9092,2.134 -1.0758,2.1128 -1.2453,2.0935 -1.4118,2.0711 -1.5773,2.0519 -1.7416,2.0295 -1.9075,2.0114 -2.0718,1.9908 -2.2354,1.9738 -2.3997,1.9539 -2.5633,1.9368 -2.7269,1.9187 -2.8913,1.9034 -3.0548,1.8841 -3.2185,1.8688 -3.3822,1.8512 -3.5464,1.8372 -3.7101,1.8195 -3.8749,1.8055 -4.0385,1.7884 -4.2051,1.7744 -4.3677,1.7574 -4.533,1.7433 -4.6967,1.7268 -4.8626,1.7134 -5.0258,1.697 -5.1917,1.6828 -5.3554,1.6694 -6.6922,2.0043 -0.5707,-2.2811 5.082,-1.5222 1.4952,-0.4476 5.3302,-1.6588 5.1659,-1.6746 4.9976,-1.6876 4.8333,-1.7028 4.665,-1.7152 4.5002,-1.7303 4.3324,-1.7433 4.1676,-1.7592 3.9998,-1.7708 3.8327,-1.7855 3.6667,-1.7985 3.4994,-1.8125 3.3329,-1.8242 3.1658,-1.8383 2.9985,-1.8501 2.8314,-1.8635 2.6648,-1.8753 2.4976,-1.8876 2.3305,-1.8975 2.1638,-1.9093 1.9967,-1.9193 1.8301,-1.9292 1.6618,-1.938 1.4987,-1.9486 1.3332,-1.9562 1.1691,-1.9645 1.0042,-1.972 0.8435,-1.9826 0.681,-1.9891 0.5209,-2.002 0.1038,-0.5754 0.4892,-2.7152 z m -197.7549,-32.2368 5.3108,-2.1439 4.4427,-1.7304 4.5125,-1.6964 4.5776,-1.6594 4.6415,-1.6236 4.7002,-1.5843 4.7571,-1.5445 4.8093,-1.5028 4.8604,-1.4623 4.9072,-1.4177 4.9518,-1.3732 4.9918,-1.3268 5.0298,-1.2799 5.0645,-1.2306 5.0955,-1.1814 5.1231,-1.1286 5.1501,-1.0787 5.1701,-1.0235 5.19,-0.9691 5.2046,-0.9121 5.2181,-0.8552 5.2264,-0.7954 5.2334,-0.7355 5.2357,-0.674 5.2369,-0.6124 5.2328,-0.5467 5.227,-0.4833 5.2158,-0.4153 5.2052,-0.3478 5.1876,-0.2787 5.1689,-0.21 6.3426,-0.1665 v 2.3492 l -6.2646,0.1648 -1.3831,0.0557 -3.7535,0.1508 -5.1571,0.2763 -5.1748,0.3466 -5.1864,0.413 -5.1976,0.4798 -5.2047,0.5443 -5.2087,0.6089 -5.2088,0.6704 -5.2064,0.7321 -5.2005,0.7918 -5.1924,0.8506 -5.1788,0.9074 -5.1642,0.9643 -5.1454,1.0189 -5.1254,1.0728 -5.0985,1.1239 -5.0709,1.1755 -5.0399,1.2248 -5.0063,1.274 -4.9671,1.3198 -4.9272,1.3661 -4.8826,1.4107 -4.8369,1.4553 -4.7847,1.4957 -4.7324,1.5363 -4.6744,1.5761 -4.6169,1.6142 -4.5518,1.6501 -4.4867,1.6869 -3.1968,1.2465 -1.2189,0.4757 -5.6018,2.2612 z m 387.7325,119.2459 -1.6061,2.0406 -0.803,1.0471 -0.525,0.7039 -0.2622,0.3519 -0.7742,1.0664 -0.7579,1.0746 -0.7449,1.0857 -0.7303,1.0946 -0.7162,1.1051 -0.7004,1.1133 -0.6874,1.1239 -0.6717,1.1326 -0.6593,1.1444 -0.6428,1.1515 -0.63,1.1637 -0.6148,1.1714 -0.6012,1.182 -0.5848,1.1907 -0.5725,1.2019 -0.5567,1.2101 -0.5431,1.2206 -0.5273,1.2289 -0.5151,1.2406 -0.4991,1.25 -0.4863,1.2605 -0.4704,1.2676 -0.4564,1.2793 -0.4417,1.2881 -0.1965,0.596 -0.2322,0.7033 -0.4124,1.308 -0.3995,1.3175 -0.3812,1.328 -0.6793,2.4483 -2.2794,-0.5695 0.6986,-2.5176 0.3912,-1.3544 0.4077,-1.3456 0.4218,-1.335 0.437,-1.3263 0.451,-1.3162 0.4669,-1.3063 0.4799,-1.2958 0.4968,-1.2875 0.5109,-1.277 0.5256,-1.2675 0.539,-1.2571 0.5561,-1.2488 0.5695,-1.237 0.5843,-1.2289 0.5989,-1.2177 0.6153,-1.2101 0.6288,-1.1984 0.644,-1.1896 0.6582,-1.1796 0.6745,-1.1702 0.6881,-1.1596 0.7027,-1.1497 0.7168,-1.1391 0.7338,-1.1321 0.7467,-1.1204 0.7625,-1.1103 0.7766,-1.1004 0.7919,-1.0911 0.8054,-1.0798 0.82,-1.0729 1.5005,-1.9069 z m 150.9101,-32.3899 -0.8687,3.7787 -0.7461,2.5979 -0.8705,2.5064 -0.9954,2.4179 -1.1168,2.3269 -1.2377,2.2389 -1.355,2.1492 -1.4717,2.0607 -1.5843,1.9714 -1.697,1.8859 -1.806,1.7972 -1.914,1.7128 -2.0166,1.626 -2.1211,1.5427 -2.2213,1.4588 -2.3205,1.3778 -2.4155,1.2952 -2.5105,1.2159 -2.602,1.1368 -2.6948,1.0605 -2.7826,0.9831 -2.8713,0.908 -2.9552,0.8341 -3.0402,0.762 -3.1217,0.6886 -3.2021,0.6183 -3.2807,0.5484 -3.3593,0.481 -3.4338,0.4118 -3.5071,0.3461 -3.5792,0.2821 -4.8832,0.2892 v -2.3528 l 3.3651,-0.1988 1.3568,-0.0804 3.5335,-0.2762 3.4596,-0.3414 3.3821,-0.4059 3.3054,-0.4728 3.2243,-0.5391 3.1435,-0.6077 3.0584,-0.6745 2.9745,-0.7456 2.8871,-0.8141 2.7985,-0.8857 2.7064,-0.9561 2.6162,-1.0301 2.521,-1.1004 2.4249,-1.1749 2.3275,-1.2482 2.2314,-1.3251 2.1298,-1.3989 2.0284,-1.4747 1.9251,-1.552 1.8225,-1.6307 1.7157,-1.7081 1.6101,-1.7885 1.5011,-1.8682 1.3942,-1.9527 1.2835,-2.0342 1.1719,-2.1205 1.0582,-2.2061 0.945,-2.2946 0.8276,-2.3839 0.7092,-2.4753 0.2522,-1.0975 0.6118,-2.6648 z m -171.4302,-94.8826 -2.7228,2.0612 -1.8753,1.3731 -1.8999,1.3421 -1.9251,1.3139 -1.948,1.2835 -1.9738,1.2546 -1.9973,1.2242 -2.0231,1.1966 -2.0454,1.1655 -2.0717,1.1362 -2.0947,1.1069 -2.1204,1.0781 -2.144,1.047 -2.1685,1.0189 -2.1926,0.9884 -2.2178,0.9608 -2.2407,0.9285 -2.2648,0.9004 -2.29,0.8705 -2.314,0.8417 -2.3375,0.8106 -2.3633,0.7825 -2.3862,0.7532 -2.4119,0.7238 -2.4337,0.6928 -2.4601,0.6645 -2.4824,0.6347 -2.5087,0.6065 -2.5317,0.5755 -2.5557,0.5466 -2.5797,0.5197 -3.6849,0.691 -0.5707,-2.2829 3.8074,-0.7133 2.551,-0.5115 0.396,-0.0844 2.131,-0.4564 2.5011,-0.5684 2.4783,-0.5995 2.453,-0.6264 2.4284,-0.6564 2.4032,-0.6845 2.3803,-0.7145 2.3545,-0.7426 2.3317,-0.7719 2.3046,-0.8001 2.2823,-0.83 2.2572,-0.8575 2.233,-0.8875 2.2079,-0.9157 2.185,-0.9455 2.1597,-0.9743 2.1357,-1.0036 2.1111,-1.0306 2.0876,-1.0617 2.0618,-1.0893 2.0389,-1.1186 2.0126,-1.1467 1.9902,-1.1767 1.9656,-1.2054 1.941,-1.2336 1.9163,-1.2623 1.8935,-1.2928 0.8593,-0.6065 1.0089,-0.7127 1.843,-1.352 2.8202,-2.1357 z"
           style="fill:#d9dadb;fill-rule:evenodd"
           id="path3" /><path
           d="m 422.8571,123.4085 c 36.866,-21.8709 80.2741,-26.1552 87.9939,-9.8374 7.7199,16.3178 -12.1672,48.1951 -49.0338,70.066 -36.8666,21.8709 -77.1172,25.6695 -84.837,9.3517 -7.7199,-16.3179 9.0109,-47.7094 45.8769,-69.5803 z"
           style="fill:#e30016;fill-rule:evenodd"
           id="path4" /></g></g></g></svg>
