<?xml version="1.0" encoding="UTF-8" standalone="no"?>
<!-- Generator: Adobe Illustrator 19.2.1, SVG Export Plug-In . SVG Version: 6.00 Build 0)  -->

<svg
   version="1.1"
   id="layer"
   x="0px"
   y="0px"
   viewBox="0 0 1000 288"
   xml:space="preserve"
   sodipodi:docname="hersheys.svg"
   width="1000"
   height="288"
   inkscape:version="1.4.2 (f4327f4, 2025-05-13)"
   xmlns:inkscape="http://www.inkscape.org/namespaces/inkscape"
   xmlns:sodipodi="http://sodipodi.sourceforge.net/DTD/sodipodi-0.dtd"
   xmlns="http://www.w3.org/2000/svg"
   xmlns:svg="http://www.w3.org/2000/svg"><defs
   id="defs13" /><sodipodi:namedview
   id="namedview13"
   pagecolor="#505050"
   bordercolor="#eeeeee"
   borderopacity="1"
   inkscape:showpageshadow="0"
   inkscape:pageopacity="0"
   inkscape:pagecheckerboard="0"
   inkscape:deskcolor="#505050"
   inkscape:zoom="0.49996354"
   inkscape:cx="223.01626"
   inkscape:cy="755.05506"
   inkscape:window-width="1920"
   inkscape:window-height="991"
   inkscape:window-x="-9"
   inkscape:window-y="-9"
   inkscape:window-maximized="1"
   inkscape:current-layer="layer" />
<style
   type="text/css"
   id="style1">
	.st0{fill:#3C0C12;}
</style>
<g
   id="g13"
   transform="matrix(1.6672205,0,0,1.6672205,-35.177781,-393.26124)">
	<g
   id="g12">
		<g
   id="g11">
			<g
   id="g1">
				<path
   class="st0"
   d="m 554.5,237.8 h -18.6 l -5.7,33.6 h 10.3 c 8.7,-9.9 16.3,-33.6 16.3,-33.6 z"
   id="path1" />
			</g>
			<g
   id="g2">
				<path
   class="st0"
   d="M 152.4,237.9 H 103 v 168 h 52.8 v -24.4 h -23.9 c 0,-3.2 0,-51.1 0,-54.3 h 20.7 v -24.3 h -20.7 v -40.4 c 3,0 22.2,0 22.2,0 V 238 h -1.7 z"
   id="path2" />
			</g>
			<g
   id="g3">
				<path
   class="st0"
   d="m 526.5,237.8 h -20.7 c 0,0 -6.4,46.4 -8.6,62.2 -2.3,-15.8 -9,-62.2 -9,-62.2 H 459.4 L 479.7,353 v 52.8 h 28.8 v -53.1 c 0,0 19.8,-112.8 19.8,-112.8 l 0.4,-2.1 z"
   id="path3" />
			</g>
			<g
   id="g4">
				<path
   class="st0"
   d="M 88,237.9 H 61.6 c 0,0 0,60.7 0,64.1 -2.4,0 -9.6,0 -12.1,0 V 237.9 H 21.1 l 0.1,168 h 28.4 c 0,0 0,-76.4 0,-79.8 h 12 v 79.8 h 28.2 v -168 H 88 Z"
   id="path4" />
			</g>
			<g
   id="g6">
				<g
   id="g5">
					<path
   class="st0"
   d="M 231.5,375.8 V 336 c 0,-9.5 -4.1,-16.8 -11.6,-21.4 7.9,-4.4 12.2,-12.4 12.2,-23.7 V 266 c 0,-17.1 -9.7,-28.2 -24.6,-28.2 h -42.3 v 168 h 27.6 c 0,0 0,-75.7 0,-79.1 h 4.6 c 1.6,0 6.6,0 6.6,7.6 v 51.1 c 0,6.4 0.4,13.7 3.2,19.4 l 0.5,1 h 35 c -0.1,0.1 -11.2,-5.2 -11.2,-30 m -26,-77.9 c 0,6.4 -5.6,7.1 -8,7.1 0,0 -3.1,0 -3.4,0 v -42 h 3.1 c 5.5,0 8.2,2.3 8.2,6.7 v 28.2 z"
   id="path5" />
				</g>
			</g>
			<g
   id="g7">
				<path
   class="st0"
   d="m 555.1,266.4 v 16.3 c 0,13.5 3.2,20.7 9.1,29.4 4.1,5.9 8.9,11.1 13.6,16.1 l 9.5,10.8 c 3.6,4.7 5.9,8.3 5.9,14.8 v 25.1 c 0,2.8 -2.4,4.9 -5.7,4.9 -3.4,0 -5.8,-2.2 -5.8,-5.5 V 346 h -27.8 v 33.6 c 0,18 12.7,29.2 33,29.2 16.4,0 34,-9 34,-28.9 v -27.1 c 0,-9.9 -1.2,-16.8 -8,-26.6 -4.1,-6 -10.5,-13.1 -16.2,-19.5 l -6.9,-7.8 c -4.9,-5.9 -7.3,-10.4 -7.3,-20.1 v -12.4 c 0,-4 2.9,-5.5 5.4,-5.5 3.2,0 5.1,2.1 5.1,5.5 V 291 h 26.8 v -25.2 c 0,-20 -10.8,-30.1 -32.2,-30.1 -20.8,-0.1 -32.5,10.9 -32.5,30.7"
   id="path6" />
			</g>
			<g
   id="g8">
				<path
   class="st0"
   d="m 450.5,237.8 h -48.6 v 168 h 52.9 v -24.4 h -23.9 c 0,-3.2 0,-51.1 0,-54.3 h 20.7 v -24.3 h -20.7 v -40.4 h 21.5 v -24.5 h -1.9 z"
   id="path7" />
			</g>
			<g
   id="g9">
				<path
   class="st0"
   d="m 386.9,237.9 h -26.5 c 0,0 0,60.7 0,64.1 -2.4,0 -9.6,0 -12,0 0,-3.4 0,-64.1 0,-64.1 H 320 l 0.1,168 h 28.4 c 0,0 0,-76.4 0,-79.8 h 12 v 79.8 h 28.2 v -168 z"
   id="path8" />
			</g>
			<g
   id="g10">
				<path
   class="st0"
   d="m 243.2,266.5 v 16.3 c 0,13.5 3.2,20.7 9.1,29.3 4,5.9 8.9,11.1 13.6,16.1 l 9.5,10.8 c 3.6,4.7 5.9,8.3 5.9,14.8 v 25.1 c 0,2.8 -2.4,4.9 -5.8,4.9 -3.4,0 -5.8,-2.2 -5.8,-5.5 V 346 h -27.8 v 33.6 c 0,18 12.7,29.2 33.1,29.2 16.4,0 34,-9.1 34,-28.9 v -27.1 c 0,-9.9 -1.2,-16.8 -7.9,-26.6 -4.1,-6 -10.5,-13.1 -16.1,-19.4 l -6.9,-7.8 c -4.9,-5.9 -7.3,-10.4 -7.3,-20.2 v -12.4 c 0,-4 2.9,-5.5 5.4,-5.5 3.2,0 5.1,2.1 5.1,5.5 V 291 h 26.8 v -25.2 c 0,-20 -10.8,-30.1 -32.1,-30.1 -21.1,0 -32.8,10.9 -32.8,30.8"
   id="path9" />
			</g>
		</g>
	</g>
</g>
</svg>
