<?xml version="1.0" encoding="UTF-8" standalone="no"?>
<svg
   width="1000"
   height="500"
   viewBox="0 0 264.58333 132.29166"
   version="1.1"
   id="svg11"
   sodipodi:docname="nissin.svg"
   inkscape:version="1.4.2 (f4327f4, 2025-05-13)"
   xmlns:inkscape="http://www.inkscape.org/namespaces/inkscape"
   xmlns:sodipodi="http://sodipodi.sourceforge.net/DTD/sodipodi-0.dtd"
   xmlns="http://www.w3.org/2000/svg"
   xmlns:svg="http://www.w3.org/2000/svg">
  <defs
     id="defs11" />
  <sodipodi:namedview
     id="namedview11"
     pagecolor="#505050"
     bordercolor="#eeeeee"
     borderopacity="1"
     inkscape:showpageshadow="0"
     inkscape:pageopacity="0"
     inkscape:pagecheckerboard="0"
     inkscape:deskcolor="#505050"
     inkscape:document-units="px"
     inkscape:zoom="0.54122079"
     inkscape:cx="675.32513"
     inkscape:cy="416.65066"
     inkscape:window-width="1920"
     inkscape:window-height="991"
     inkscape:window-x="-9"
     inkscape:window-y="-9"
     inkscape:window-maximized="1"
     inkscape:current-layer="svg11" />
  <g
     id="g11"
     transform="translate(-2.5000001e-6,60.014321)">
    <path
       fill="#ed1c24"
       d="m 132.29166,72.277344 c 73.05732,0 132.29167,-59.234349 132.29167,-132.291668 H 0 C 0,13.042995 59.234348,72.277344 132.29166,72.277344"
       id="path10"
       style="stroke-width:12.1681" />
    <path
       fill="#ffffff"
       d="M 79.677986,12.140121 V -34.79227 h 12.752177 v 46.932391 z m 105.229794,0 V -34.79227 H 172.13127 V 12.140121 Z M 72.024246,-34.79227 H 60.209013 v 23.885995 L 45.473436,-34.79227 H 33.09847 v 46.920224 h 12.374966 v -24.895949 l 8.578515,13.8594748 c 1.861721,3.0420269 4.855075,6.8749808 8.602852,9.0774082 2.324109,1.326324 5.779852,2.591807 9.96568,2.591807 V -34.79227 Z m 158.866814,0 h -11.7909 v 23.885995 L 204.36459,-34.79227 h -12.41148 v 46.920224 h 12.41148 v -24.895949 l 8.55417,13.8594748 c 1.84956,3.0420269 4.84291,6.8749808 8.60286,9.0774082 2.3241,1.326324 5.76768,2.591807 9.96567,2.591807 V -34.79227 Z m -70.3195,28.6072214 c -5.99888,-4.0398114 -11.03647,-5.4878164 -12.61832,-6.2300714 -1.76437,-0.839599 -2.96902,-2.640479 -2.96902,-4.709058 0,-2.908178 2.48229,-5.280959 5.49998,-5.280959 h 14.26103 V -34.79227 h -17.02319 c -9.40594,0 -17.03534,7.641571 -17.03534,17.035351 0,0.803095 0.0608,1.569685 0.15818,2.336277 -1.19248,-1.60619 -2.62831,-2.993355 -4.28317,-4.11282 -5.98671,-4.039812 -11.04865,-5.463481 -12.61834,-6.217903 -1.76437,-0.8396 -2.95684,-2.652649 -2.95684,-4.684722 0,-2.920346 2.45796,-5.280959 5.48782,-5.280959 h 14.28535 v -12.399301 h -17.04751 c -9.40595,0 -17.035357,7.629403 -17.035357,17.03535 0,6.461265 3.613927,12.095099 8.931397,14.978941 1.94689,1.046457 3.51658,1.946897 6.08405,3.029859 1.66703,0.693581 8.72453,2.993354 8.72453,7.5563943 0,2.8595053 -2.77433,5.20795011 -6.20574,5.20795011 H 96.749841 V 12.115785 h 20.211219 c 9.52763,0 17.27872,-7.7510842 17.27872,-17.2787125 0,-0.8395995 -0.073,-1.6305265 -0.17035,-2.4092854 1.47234,1.9712335 3.34622,3.613928 5.53648,4.8064026 1.94691,1.0464572 3.51659,1.92256098 6.09623,3.01769067 1.64269,0.70575024 8.7367,3.00552263 8.7367,7.54422673 0,2.8716729 -2.78649,5.2079499 -6.23007,5.2079499 H 130.7597 v 12.41147 h 20.19906 c 9.5398,0 17.29089,-7.726748 17.29089,-17.2665447 0,-5.9623728 -3.06637,-11.2554997 -7.67809,-14.3340309"
       id="path11"
       style="stroke-width:12.1681" />
  </g>
</svg>
