<?xml version="1.0" encoding="UTF-8" standalone="no"?>
<!-- Created with Inkscape (http://www.inkscape.org/) -->

<svg
   width="1000"
   height="368"
   viewBox="0 0 264.58333 97.366665"
   version="1.1"
   id="svg1"
   inkscape:version="1.4.2 (f4327f4, 2025-05-13)"
   xml:space="preserve"
   sodipodi:docname="pilao.svg"
   xmlns:inkscape="http://www.inkscape.org/namespaces/inkscape"
   xmlns:sodipodi="http://sodipodi.sourceforge.net/DTD/sodipodi-0.dtd"
   xmlns="http://www.w3.org/2000/svg"
   xmlns:svg="http://www.w3.org/2000/svg"><sodipodi:namedview
     id="namedview1"
     pagecolor="#000000"
     bordercolor="#ffffff"
     borderopacity="1"
     inkscape:showpageshadow="0"
     inkscape:pageopacity="0"
     inkscape:pagecheckerboard="true"
     inkscape:deskcolor="#000000"
     inkscape:document-units="px"
     inkscape:antialias-rendering="true"
     inkscape:zoom="0.922"
     inkscape:cx="550.43384"
     inkscape:cy="322.66811"
     inkscape:window-width="1920"
     inkscape:window-height="991"
     inkscape:window-x="-9"
     inkscape:window-y="-9"
     inkscape:window-maximized="1"
     inkscape:current-layer="layer1" /><defs
     id="defs1" /><g
     inkscape:label="Camada 1"
     inkscape:groupmode="layer"
     id="layer1"><g
       id="g7"
       transform="matrix(0.50031853,0,0,0.50031853,66.172947,-140.17279)"><path
         style="fill:#e71e29;fill-opacity:1"
         d="m 189.72232,301.91275 c 0.14715,-0.38704 0.95838,-2.08368 1.80273,-3.77031 4.86228,-9.71268 10.40833,-15.72669 16.13459,-17.496 1.62673,-0.50263 2.60314,-0.51956 29.96407,-0.51956 15.5554,0 28.28255,0.0964 28.28255,0.21435 0,0.56007 -4.03314,8.15754 -5.57544,10.50279 -4.33712,6.59511 -9.20166,10.62222 -13.87457,11.48605 -1.04834,0.1938 -10.514,0.2864 -29.27537,0.2864 h -27.72611 z"
         id="path7" /><path
         id="path5"
         style="fill:#281419;fill-opacity:1"
         d="m 223.1502,312.9349 c -14.32223,0 -14.41782,0.008 -15.61455,1.35496 -0.30764,0.34618 -9.28895,16.28613 -19.95795,35.42212 -42.60147,76.41029 -51.88903,93.00713 -52.32136,93.49404 -0.248,0.27931 -0.92739,0.72644 -1.50947,0.99373 -0.97887,0.4495 -1.99568,0.48696 -13.54491,0.49196 l -12.48709,0.006 -0.709,-0.6103 c -0.4157,-0.35757 -0.70732,-0.87778 -0.70332,-1.25677 0.007,-0.75686 0.23692,-1.95389 9.32502,-48.66835 1.03333,-5.31152 2.71044,-13.94354 3.7269,-19.18229 1.01646,-5.23875 2.74037,-14.10891 3.83077,-19.71146 1.0904,-5.60256 2.69906,-13.8774 3.57446,-18.38854 0.87541,-4.51115 2.18023,-11.21423 2.90008,-14.89522 0.71986,-3.68098 1.30897,-6.98496 1.30897,-7.34218 0,-0.35721 -0.23812,-0.88719 -0.52917,-1.17823 -0.51909,-0.51906 -0.88172,-0.52916 -19.06292,-0.52916 -19.894949,0 -19.643034,-0.0164 -20.358961,1.32136 -0.153693,0.28717 -1.234467,5.43503 -2.401404,11.44013 -1.166937,6.00509 -2.953743,15.20496 -3.970817,20.44371 -1.017074,5.23875 -2.972103,15.29954 -4.344437,22.3573 -1.372335,7.05776 -3.338032,17.17807 -4.368209,22.48958 -1.030178,5.31151 -2.765425,14.2412 -3.856095,19.84375 -1.090671,5.60256 -2.699079,13.87739 -3.574459,18.38854 -1.62312,8.36451 -2.73156,14.05477 -4.843632,24.87083 -2.461375,12.60485 -2.57915,13.32234 -2.283582,13.87461 0.153747,0.28728 0.486096,0.64366 0.738973,0.79168 v -5.2e-4 c 0.307929,0.18027 15.410204,0.24961 45.727953,0.20981 l 45.26804,-0.0594 0.85318,-0.66146 c 0.91125,-0.70665 1.16165,-1.17645 11.76517,-22.06118 3.16823,-6.24018 5.88624,-11.54675 6.03943,-11.79205 0.15319,-0.2453 0.70096,-0.73533 1.21749,-1.08933 l 0.93897,-0.64389 19.73109,-0.0801 c 10.85207,-0.0442 20.22671,-0.008 20.83232,0.0791 1.56937,0.22674 2.4,1.14761 2.58434,2.86494 0.0808,0.75328 0.62565,8.03693 1.21026,16.1861 0.58462,8.14916 1.13045,15.14277 1.21285,15.54117 0.0824,0.39841 0.45404,0.96396 0.8263,1.25677 0.66363,0.522 1.03987,0.53226 19.30632,0.53226 h 18.62987 l 0.64905,-0.64957 c 0.35719,-0.35718 0.64958,-0.8297 0.64958,-1.05006 0,-0.22037 -1.12585,-8.58978 -2.50218,-18.59887 -2.50295,-18.20216 -7.22678,-52.64408 -11.93053,-86.99004 -1.37512,-10.04094 -2.73957,-19.98265 -3.03186,-22.0927 -0.29229,-2.11005 -1.18108,-8.58394 -1.97559,-14.38672 -1.50479,-10.99046 -1.6512,-11.5904 -2.94814,-12.0835 -0.39064,-0.14852 -6.17215,-0.2527 -14.01775,-0.2527 z m -324.27374,5.2e-4 -0.84801,0.85989 c -0.81468,0.82639 -0.90081,1.13311 -2.2071,7.87136 -3.42203,17.65186 -10.08043,51.93861 -11.97188,61.64791 -1.14812,5.89359 -2.81485,14.46609 -3.70417,19.05 -2.02922,10.45948 -4.77931,24.60824 -7.1484,36.77709 -6.02294,30.93685 -5.68213,28.79848 -4.70049,29.48605 0.5187,0.36328 2.78367,0.41186 19.20865,0.41186 h 18.620568 l 0.857829,-0.85989 c 0.804996,-0.80714 0.916088,-1.16018 1.808675,-5.75469 0.523009,-2.69213 2.036025,-10.49073 3.362585,-17.33021 1.326559,-6.83947 3.76813,-19.40057 5.425509,-27.91354 1.657378,-8.51296 4.216031,-21.66938 5.685957,-29.23646 2.886171,-14.85783 5.078429,-26.13452 7.793323,-40.08437 1.671396,-8.58807 1.750041,-8.88616 2.528528,-9.59115 l 0.803568,-0.7276 h 6.185669 c 5.528863,0 6.378296,0.0589 7.999512,0.555 4.720291,1.44439 8.173304,4.44042 10.366292,8.99532 1.905073,3.9569 2.271629,5.6422 2.269629,10.42572 -0.0019,4.41197 -0.432048,6.73543 -1.963188,10.6009 -3.864735,9.75678 -12.404243,16.71167 -21.162015,17.23461 -2.892691,0.17273 -3.87187,0.56624 -4.352706,1.74925 -0.188299,0.46328 -0.7792,3.1045 -1.313098,5.8694 -0.533897,2.7649 -1.382407,7.12104 -1.885673,9.68055 -1.506667,7.66263 -1.848429,7.22008 5.660119,7.3396 10.166554,0.16183 16.902751,-0.65778 23.769609,-2.89181 21.864853,-7.11341 38.4253829,-25.99673 41.5106437,-47.33354 0.5912394,-4.08884 0.396612,-11.42468 -0.4010092,-15.13396 -1.66942418,-7.76353 -5.0536415,-14.01279 -10.5838499,-19.543 -6.8589516,-6.85895 -15.4427546,-10.83396 -25.6428786,-11.87472 -1.759522,-0.17953 -14.053472,-0.27957 -34.356042,-0.27957 z m 124.415141,0 -0.81442,0.7276 c -0.981996,0.87741 -0.683428,-0.43567 -5.155241,22.68802 -1.829215,9.45885 -4.266426,22.01995 -5.41569,27.91354 -1.149265,5.89359 -2.8163685,14.46609 -3.7046835,19.05 -0.8883149,4.5839 -2.4953392,12.85875 -3.5713582,18.38854 -1.0760191,5.52979 -2.7409582,14.10229 -3.70003253,19.05 -0.95907433,4.94771 -2.21038997,11.37708 -2.78070877,14.2875 -0.5703189,2.91042 -1.7623146,9.04214 -2.6484171,13.62605 -0.8861026,4.58391 -2.0222919,10.40888 -2.5249105,12.94442 -1.0943612,5.52067 -1.1371749,6.44815 -0.3255615,7.01663 0.518652,0.36328 2.7778965,0.41186 19.1466351,0.41186 18.388864,0 18.5648,-0.005 19.257222,-0.54984 0.384347,-0.30233 0.812427,-0.76203 0.951363,-1.02164 0.138937,-0.2596 1.036411,-4.5067 1.994193,-9.43818 0.957782,-4.93148 2.204995,-11.34764 2.771407,-14.25805 0.566412,-2.91042 2.17229,-11.18526 3.568775,-18.38854 1.396485,-7.20328 3.37415,-17.38312 4.39508,-22.62187 1.02093,-5.23875 2.629426,-13.51359 3.574459,-18.38854 0.945032,-4.87495 2.185402,-11.24479 2.755904,-14.15521 0.570501,-2.91041 1.758112,-9.04213 2.639632,-13.62604 0.881519,-4.5839 1.775018,-9.16782 1.985409,-10.18646 0.210391,-1.01865 1.463872,-7.44802 2.78536,-14.2875 1.321487,-6.83948 2.575896,-13.29391 2.787426,-14.3428 0.211529,-1.04889 0.384473,-2.38161 0.384473,-2.96157 0,-1.98562 1.12994,-1.87792 -19.766235,-1.87792 z m 319.117469,0 c -17.75629,0 -36.3412,8.51462 -51.37929,23.53913 -14.05733,14.04463 -23.5359,31.98062 -27.13013,51.33795 -2.60306,14.01917 -2.02734,28.9039 1.60662,41.52925 7.32378,25.44481 25.69357,42.45324 48.704,45.09492 13.77769,1.58173 29.33975,-1.83663 41.38973,-9.09144 9.5153,-5.72879 18.2362,-14.6424 24.63312,-25.17727 2.495,-4.10893 5.75539,-10.69166 7.45381,-15.04921 6.31445,-16.20074 9.76507,-36.2778 8.68525,-50.53542 -1.56377,-20.6475 -8.26299,-36.58186 -20.19566,-48.03634 -3.90107,-3.74473 -7.09484,-6.00996 -11.85096,-8.40621 -7.07168,-3.56288 -13.98726,-5.20536 -21.91649,-5.20536 z m -3.9734,31.61047 c 5.2595,-0.11623 10.06503,2.4306 13.86892,7.58972 2.46652,3.34527 4.83228,8.84386 6.07198,14.11335 1.33188,5.66135 1.58195,8.23069 1.58595,16.27187 0.004,7.83278 -0.14479,9.67183 -1.34255,16.66462 -4.09751,23.92217 -13.43588,39.25178 -26.4356,43.3958 -1.42099,0.45298 -2.65269,0.61141 -5.29167,0.68161 -1.89177,0.0503 -3.86677,-0.0171 -4.38888,-0.14986 -9.83887,-2.50208 -16.877,-13.74243 -18.88721,-30.16508 -0.8171,-6.67546 -0.47502,-16.76409 0.80718,-23.8125 3.01944,-16.59832 11.22232,-31.88701 21.17339,-39.46219 4.38225,-3.33596 8.74777,-5.03694 12.83849,-5.12734 z m -127.58343,13.40538 c 0.10136,-0.004 0.209,0.0452 0.31213,0.14831 0.17963,0.17962 0.98527,9.80205 2.10323,25.11372 1.94939,26.69898 1.9313,25.76557 0.51573,26.48158 -0.50718,0.25657 -3.81046,0.33548 -14.16244,0.33848 -11.79549,0.003 -13.57531,-0.0484 -14.08906,-0.40824 -0.32342,-0.22654 -0.58808,-0.60253 -0.58808,-0.83561 0,-0.42413 25.23304,-50.2557 25.68784,-50.72972 0.0664,-0.0692 0.14182,-0.10515 0.22065,-0.10852 z" /></g></g></svg>
