<?xml version="1.0" encoding="UTF-8" standalone="no"?>
<!-- Uploaded to: SVG Repo, www.svgrepo.com, Generator: SVG Repo Mixer Tools -->

<svg
   width="1000"
   height="608"
   viewBox="0 -66.23 422.59 256.93472"
   version="1.1"
   id="svg3"
   sodipodi:docname="redbull.svg"
   inkscape:version="1.4.2 (f4327f4, 2025-05-13)"
   xmlns:inkscape="http://www.inkscape.org/namespaces/inkscape"
   xmlns:sodipodi="http://sodipodi.sourceforge.net/DTD/sodipodi-0.dtd"
   xmlns="http://www.w3.org/2000/svg"
   xmlns:svg="http://www.w3.org/2000/svg">
  <defs
     id="defs3" />
  <sodipodi:namedview
     id="namedview3"
     pagecolor="#505050"
     bordercolor="#eeeeee"
     borderopacity="1"
     inkscape:showpageshadow="0"
     inkscape:pageopacity="0"
     inkscape:pagecheckerboard="0"
     inkscape:deskcolor="#505050"
     inkscape:zoom="0.81494057"
     inkscape:cx="684.09896"
     inkscape:cy="484.08438"
     inkscape:window-width="1920"
     inkscape:window-height="991"
     inkscape:window-x="-9"
     inkscape:window-y="-9"
     inkscape:window-maximized="1"
     inkscape:current-layer="svg3" />
  <g
     id="g3"
     transform="matrix(1.25,0,0,1.25,0,-66.27264)">
    <path
       d="m 164.622,107.162 c 0.299,0.057 0.598,0.11 0.896,0.163 z m 2.444,0.407 c 0.348,0.052 0.696,0.098 1.045,0.144 z m 2.584,0.31 c 0.34,0.031 0.678,0.06 1.018,0.086 z m 1.382,0.111 c 0.287,0.021 0.574,0.038 0.861,0.053 z m 1.279,0.075 c 0.34,0.015 0.68,0.028 1.02,0.039 z m 1.358,0.043 a 44.48,44.48 0 0 0 2.279,0.002 z m 2.642,-0.004 a 62.8,62.8 0 0 0 1.062,-0.041 z m 1.396,-0.057 c 0.307,-0.017 0.609,-0.036 0.914,-0.057 z m 1.231,-0.079 c 0.332,-0.025 0.665,-0.053 0.995,-0.084 z m 2.698,-0.274 c 0.256,-0.03 0.51,-0.063 0.763,-0.103 z m 46.657,-85.818 a 9.605,9.605 0 0 0 -0.846,-0.404 z m -2.772,-0.997 a 10.845,10.845 0 0 0 -1.07,-0.164 z m 66.407,51.863 -0.193,0.027 z M 44.028,57.673 a 10.224,10.224 0 0 1 -2.724,-4.118 c -0.454,-1.315 -1.042,-2.958 -1.042,-4.353 0.029,-6.29 3.7,-10.962 7.652,-13.125 1.796,-0.982 2.463,-1.656 2.737,-2.002 a 1.296,1.296 0 0 0 -0.415,-0.106 c -5.379,0 -8.137,-2.09 -9.491,-3.859 -1.283,-1.657 -1.938,-3.793 -1.938,-6.129 0,-1.135 0.16,-2.323 0.475,-3.538 1.516,-2.504 2.956,-1.816 3.838,-0.535 0.562,0.802 4.413,3.532 9.158,3.965 3.453,0.328 5.314,2.017 6.282,3.366 1.116,1.562 1.544,3.444 1.544,5.045 0,0.655 -0.074,1.27 -0.215,1.817 -0.52,2.11 -2.743,4.012 -5.839,6.435 l -1.756,1.456 c -2.571,2.25 -3.986,4.754 -3.986,6.876 0,0.53 0.093,1.047 0.272,1.524 0.074,0.196 0.163,0.385 0.268,0.564 1.149,1.945 4.396,3.165 9.106,1.517 2.177,-0.755 6.368,-3.393 8.927,-5.93 3.011,-3.004 7.03,-3.725 10.9,-4.031 3.356,-0.253 5.422,-1.076 6.877,-2.712 4.3,-4.845 8.438,-5.526 12.311,-5.814 1.482,-0.114 1.562,-0.22 1.755,-0.481 2.135,-2.843 4.328,-4.348 6.296,-5.224 1.5,-0.667 2.87,-0.971 3.992,-1.217 l 1.362,-0.335 0.34,-0.12 c 2.156,-0.694 3.825,-1.269 8.211,-4.233 l 0.187,-0.118 0.001,-0.002 0.184,-0.115 0.002,-10e-4 0.185,-0.109 0.003,-10e-4 0.185,-0.106 0.003,-0.001 0.186,-0.098 0.006,-0.002 0.184,-0.096 0.006,-0.002 0.185,-0.09 0.008,-0.002 0.186,-0.086 0.007,-0.004 0.187,-0.078 0.008,-0.003 0.186,-0.077 0.01,-0.002 0.187,-0.07 0.009,-0.005 0.185,-0.066 0.197,-0.066 0.013,-0.003 0.184,-0.059 0.012,-0.003 0.187,-0.054 0.013,-0.003 0.185,-0.051 0.014,-0.004 0.186,-0.044 0.017,-0.004 0.183,-0.042 0.015,-0.004 0.187,-0.038 0.016,-0.004 0.185,-0.034 0.017,-0.003 0.185,-0.031 0.017,-0.002 0.183,-0.027 0.019,-0.004 0.184,-0.021 0.019,-0.004 0.181,-0.02 0.02,-10e-4 0.183,-0.017 0.021,-0.002 0.182,-0.013 0.021,-0.002 0.179,-0.011 0.021,-10e-4 0.181,-0.008 0.202,-0.006 h 0.021 l 0.18,-0.002 h 0.224 l 0.178,0.002 0.021,0.001 h 0.021 c 0.128,0.003 0.256,0.011 0.384,0.018 l 0.176,0.011 0.025,0.002 0.173,0.013 0.026,0.002 0.173,0.017 0.027,0.003 0.172,0.017 0.028,0.002 0.171,0.021 0.027,0.004 0.17,0.021 0.029,0.005 0.168,0.025 0.028,0.005 0.169,0.026 0.03,0.006 0.165,0.029 0.031,0.005 0.164,0.03 0.03,0.007 c 0.262,0.049 0.52,0.107 0.773,0.169 l 0.159,0.04 0.032,0.009 c 0.255,0.066 0.507,0.136 0.755,0.21 l 0.147,0.046 0.036,0.011 c 0.492,0.155 0.969,0.33 1.431,0.515 l 0.13,0.054 0.17,0.07 C 140.648,9.307 155.478,0.828 172.333,0.061 V 0.057 A 56.503,56.503 0 0 1 174.824,0 a 56.724,56.724 0 0 1 1.647,0.025 c 0.273,0.009 0.546,0.02 0.818,0.031 h 0.003 c 0.27,0.013 0.543,0.026 0.814,0.043 16.31,0.98 30.674,9.194 39.925,21.475 1.321,-0.459 2.76,-0.792 4.229,-0.892 l 0.039,-0.002 0.139,-0.009 0.145,-0.007 0.035,-0.002 0.038,-10e-4 0.142,-0.004 0.038,-0.002 0.142,-0.001 0.038,-0.001 0.145,-10e-4 h 0.035 l 0.145,10e-4 h 0.036 l 0.179,0.003 0.146,0.006 0.032,0.001 0.146,0.007 0.034,0.002 0.147,0.01 0.028,0.002 0.149,0.012 0.029,0.002 0.15,0.015 0.027,0.003 a 10.8,10.8 0 0 1 1.07,0.164 l 0.157,0.032 0.021,0.005 0.155,0.037 0.022,0.004 0.156,0.04 0.021,0.005 0.158,0.042 0.017,0.005 0.162,0.045 0.015,0.005 0.158,0.049 0.018,0.005 0.161,0.053 0.014,0.004 0.174,0.061 0.163,0.058 0.01,0.005 0.162,0.063 0.01,0.004 0.165,0.066 0.01,0.005 c 0.285,0.12 0.567,0.253 0.846,0.404 l 0.005,0.003 0.165,0.088 0.002,0.002 0.165,0.095 0.003,10e-4 0.165,0.1 0.002,0.001 0.163,0.103 v 0.001 l 0.165,0.106 c 3.022,2.054 4.768,2.959 6.258,3.55 0.67,0.267 1.292,0.468 1.952,0.683 l 0.347,0.12 1.376,0.335 c 0.746,0.164 1.598,0.353 2.521,0.655 2.309,0.752 5.068,2.212 7.745,5.786 0.194,0.261 0.28,0.367 1.769,0.481 3.869,0.289 8,0.969 12.318,5.814 1.444,1.636 3.5,2.458 6.855,2.712 3.893,0.306 7.899,1.026 10.904,4.031 2.562,2.537 6.748,5.175 8.931,5.93 4.708,1.648 7.971,0.428 9.093,-1.517 0.246,-0.41 0.411,-0.861 0.495,-1.338 a 4.34,4.34 0 0 0 0.067,-0.75 c 0,-2.122 -1.417,-4.626 -3.981,-6.876 l -0.319,-0.265 -1.454,-1.191 c -3.084,-2.423 -5.308,-4.325 -5.844,-6.435 -0.141,-0.547 -0.202,-1.162 -0.202,-1.817 0,-1.602 0.438,-3.483 1.532,-5.045 0.975,-1.349 2.856,-3.038 6.287,-3.366 4.77,-0.433 8.6,-3.163 9.16,-3.965 0.897,-1.281 2.323,-1.969 3.833,0.535 0.32,1.215 0.48,2.403 0.48,3.538 0,2.349 -0.655,4.472 -1.937,6.129 -1.363,1.769 -4.112,3.859 -9.5,3.859 -0.114,0 -0.273,0.053 -0.406,0.106 0.267,0.347 0.934,1.021 2.734,2.002 3.952,2.164 7.627,6.836 7.66,13.125 0,1.395 -0.581,3.037 -1.05,4.353 a 10.363,10.363 0 0 1 -2.28,3.699 c -0.137,0.142 -0.28,0.282 -0.431,0.419 -2.226,2.068 -5.934,3.691 -12.112,3.322 a 33.547,33.547 0 0 1 -1.947,-0.176 c -0.16,3.117 -1.015,6.822 -2.218,8.691 -0.366,0.587 -0.438,0.981 -0.438,1.174 0,0.081 0.008,0.128 0.008,0.162 0.038,0.013 2.741,1.608 2.741,1.608 l 0.436,0.221 c 0,0 0.254,0.12 0.287,0.147 0.039,-0.014 0.934,-0.054 0.934,-0.054 l 0.177,-0.025 0.018,-0.002 c 1.69,-0.161 4.271,-0.988 5.368,2.076 0.287,0.813 0.462,1.521 0.627,2.148 0.335,1.282 0.622,2.234 1.744,3.099 0,0 0.555,-0.476 1.185,-1.036 a 44.138,44.138 0 0 0 1.431,-1.321 c 0.782,-0.801 2.229,-0.394 3.272,0 1.055,0.4 2.361,1.309 3.284,1.835 0.929,0.521 1.441,1.182 1.708,1.971 0.279,0.787 0.924,1.308 1.908,1.829 0.95,0.54 2.312,2.27 2.312,4.605 0,0.358 0.04,0.664 0.141,0.989 0.069,0.215 0.163,0.439 0.292,0.694 1.328,2.677 0.262,4.025 -0.507,4.593 -1.034,0.774 -2.858,1.094 -4.572,0.814 l 0.014,0.44 -2.503,-0.334 c -0.97,-0.121 -2.249,0.127 -3.013,0.286 l -0.18,0.048 c -1.782,0.354 -4.112,-0.249 -5.421,-2.375 -0.048,-0.079 -0.096,-0.158 -0.141,-0.242 -0.668,-1.173 -1.708,-2.262 -2.217,-2.563 -0.735,0.202 -1.896,0.476 -3.278,0.335 -1.282,-0.129 -2.761,-0.621 -4.265,-1.867 -0.249,-0.207 -0.5,-0.436 -0.749,-0.684 -2.21,-2.217 -5.126,-2.671 -6.959,-2.39 l -1.093,0.194 c -2.256,0.408 -5.074,0.928 -7.677,-0.66 -0.648,-0.395 -1.582,-0.802 -2.498,-1.189 -2.363,-1.029 -4.806,-2.09 -5.139,-4.327 -0.056,-0.399 -0.488,-1.128 -0.843,-1.708 -0.312,-0.513 -0.652,-1.074 -0.915,-1.675 -0.253,-0.574 -0.435,-1.185 -0.452,-1.823 a 7.975,7.975 0 0 1 -2.371,0.242 8.816,8.816 0 0 1 -0.842,-0.083 l -1.026,-0.159 c -1.729,-0.295 -5.35,-0.89 -6.503,-0.469 -2.296,0.828 -9.521,1.228 -11.502,0.775 0,0 -0.729,-0.16 -1.416,-0.306 -0.66,0.681 -1.396,1.32 -2.17,1.889 1.45,0.079 2.725,-0.101 3.601,0.125 l 1.82,0.48 c 0.581,-0.172 2.002,-0.152 2.809,-0.079 l 2.132,0.16 2.432,0.234 c 1.172,0.235 2.416,0.741 2.203,3.037 -0.082,0.708 -0.478,1.709 -1.074,2.297 -0.328,0.36 -1.599,2.203 -1.878,2.783 l -0.091,0.181 c -0.495,1.055 -1.229,2.024 -3.366,2.024 a 7.7,7.7 0 0 0 -0.813,0.032 c -0.065,0.173 -0.24,0.494 -0.24,0.494 -0.481,1.094 -1.176,2.617 -2.504,3.498 l -0.355,0.255 c -1.066,0.761 -2.842,2.015 -5.561,1.028 l -0.936,-0.335 c -2.37,-0.854 -5.954,-2.135 -7.763,-3.124 l -0.254,-0.14 c -1.685,-0.922 -2.058,-1.107 -2.67,-1.021 l -0.34,0.053 c -1.292,0.181 -3.728,0.508 -5.412,-2.284 l -0.154,-0.242 c -7.985,10.96 -19.987,18.805 -33.839,21.366 l -0.061,0.013 c -0.472,0.086 -0.948,0.166 -1.424,0.241 l -0.177,0.026 -0.651,0.096 c -0.253,0.038 -0.507,0.072 -0.763,0.104 l -0.464,0.058 -0.732,0.079 -0.507,0.053 c -0.33,0.031 -0.663,0.059 -0.995,0.084 l -0.315,0.021 c -0.305,0.021 -0.607,0.041 -0.914,0.057 l -0.334,0.018 c -0.354,0.017 -0.706,0.03 -1.062,0.041 l -0.361,0.006 a 44.25,44.25 0 0 1 -2.279,-0.002 l -0.34,-0.004 a 86.89,86.89 0 0 1 -1.02,-0.039 l -0.416,-0.023 c -0.287,-0.016 -0.574,-0.031 -0.861,-0.053 l -0.365,-0.024 a 69.83,69.83 0 0 1 -1.018,-0.086 l -0.502,-0.052 -0.665,-0.072 -0.371,-0.043 a 33.63,33.63 0 0 1 -1.045,-0.145 l -0.421,-0.062 -0.744,-0.116 -0.383,-0.064 c -0.299,-0.053 -0.598,-0.105 -0.896,-0.163 l -0.645,-0.129 -0.33,-0.067 c -0.441,-0.096 -0.885,-0.191 -1.323,-0.297 l -0.116,-0.027 -0.689,-0.168 -0.354,-0.091 c -0.411,-0.106 -0.82,-0.22 -1.228,-0.334 l -0.146,-0.043 C 147.641,102.504 137.262,94.855 130.265,84.695 l -0.921,1.402 c -1.668,2.792 -4.099,2.464 -5.408,2.284 l -0.34,-0.053 c -0.61,-0.086 -0.996,0.099 -2.665,1.021 l -0.268,0.14 c -1.803,0.989 -5.373,2.27 -7.756,3.124 l -0.938,0.335 c -2.717,0.987 -4.499,-0.269 -5.545,-1.028 l -0.367,-0.255 c -1.329,-0.88 -2.017,-2.403 -2.505,-3.498 0,0 -0.16,-0.321 -0.238,-0.494 a 7.774,7.774 0 0 0 -0.815,-0.032 c -2.117,0 -2.872,-0.969 -3.359,-2.024 l -0.086,-0.181 c -0.287,-0.58 -1.542,-2.423 -1.889,-2.783 -0.587,-0.587 -1.004,-1.589 -1.07,-2.297 -0.22,-2.296 1.041,-2.802 2.202,-3.037 l 2.433,-0.234 2.136,-0.16 c 0.794,-0.073 2.216,-0.093 2.796,0.079 l 1.822,-0.48 c 0.867,-0.226 2.155,-0.046 3.592,-0.125 a 20.673,20.673 0 0 1 -2.163,-1.889 c -0.695,0.146 -1.417,0.306 -1.417,0.306 -1.987,0.453 -9.199,0.053 -11.481,-0.775 -1.16,-0.421 -4.778,0.173 -6.515,0.469 l -1.042,0.159 a 7.952,7.952 0 0 1 -3.19,-0.159 c -0.055,1.307 -0.763,2.494 -1.37,3.498 -0.353,0.58 -0.8,1.309 -0.854,1.708 -0.312,2.237 -2.785,3.298 -5.141,4.327 -0.915,0.387 -1.835,0.794 -2.488,1.189 C 72.831,86.82 70,86.3 67.737,85.892 l -1.096,-0.194 c -1.823,-0.281 -4.741,0.173 -6.956,2.39 -3.387,3.379 -6.757,2.636 -8.292,2.216 -0.508,0.301 -1.555,1.39 -2.218,2.563 -1.28,2.324 -3.725,2.984 -5.567,2.617 L 43.423,95.436 C 42.667,95.277 41.404,95.029 40.437,95.15 l -2.518,0.334 0.027,-0.44 c -1.723,0.28 -3.553,-0.041 -4.591,-0.814 -0.763,-0.568 -1.832,-1.916 -0.482,-4.593 0.313,-0.642 0.42,-1.088 0.42,-1.683 0,-2.336 1.351,-4.065 2.299,-4.605 0.994,-0.521 1.648,-1.042 1.914,-1.829 0.261,-0.789 0.773,-1.45 1.703,-1.971 0.92,-0.526 2.229,-1.435 3.278,-1.835 1.047,-0.394 2.494,-0.801 3.283,0 0.795,0.774 2.616,2.356 2.616,2.356 1.671,-1.29 1.511,-2.777 2.377,-5.248 1.083,-3.064 3.674,-2.237 5.356,-2.076 l 0.193,0.027 c 0,0 0.907,0.04 0.934,0.054 0.047,-0.027 0.301,-0.147 0.301,-0.147 l 0.421,-0.221 c 0,0 2.716,-1.595 2.743,-1.608 0.012,-0.033 0.012,-0.081 0.012,-0.162 0,-0.193 -0.066,-0.587 -0.433,-1.174 -1.208,-1.87 -2.062,-5.574 -2.217,-8.691 -0.436,0.052 -0.857,0.095 -1.271,0.128 -6.578,0.528 -10.487,-1.136 -12.774,-3.279 z"
       fill="#f8ee3f"
       id="path1" />
    <g
       fill="#cc2729"
       id="g2">
      <path
         d="m 60.222,58.547 c 0,0 -0.548,5.305 1.842,9.98 0,0 1.771,2.51 -0.068,4.122 l -3.661,2.128 c 0,0 -0.492,0.366 -2.125,0.242 0,0 -2.257,-0.559 -3.011,0.438 0,0 -0.655,1.917 -1.475,3.497 0,0 -1.667,3.83 -4.426,5.057 0,0 -2.199,0.504 -2.866,2.411 0,0 -0.709,1.338 -2.129,1.397 0,0 -1.059,0.336 -1.76,2.695 0,0 -0.382,1.526 -0.362,2.696 0,0 1.806,-0.237 2.983,0.189 0,0 2.894,0.972 4.188,-1.412 0,0 2.5,-4.281 4.354,-3.637 0,0 3.724,1.246 6.354,-1.472 0,0 3.613,-3.947 8.716,-3.135 0,0 5.748,1.164 7.541,-0.162 0,0 3.625,-1.895 4.985,-2.365 0,0 1.664,-0.489 1.836,-2.311 0,0 1.012,-2.563 1.748,-3.417 l -2.742,-0.031 c 0,0 -2.483,4.176 -6.702,5.435 0,0 -2.307,0.922 -6.938,0.173 0,0 -6.649,-1.506 -12.489,4.801 0,0 -0.798,1.153 -1.937,0.692 0,0 3.227,-5.503 10.312,-6.807 0,0 2.319,-0.493 4.253,-0.179 0,0 9.543,0.28 13.968,-9.115 0,0 -0.479,-8.01 1.634,-9.907 0,0 0.816,-0.25 0.653,1.299 0,0 -1.452,8.391 1.275,10.016 0,0 1.583,1.244 4.512,0.784 0,0 4.44,-1.061 8.049,-0.443 0,0 5.55,1.317 10.319,0.708 0,0 -1.238,-1.896 -0.995,-4.163 0,0 0.683,-1.623 1.466,-0.579 0,0 1.835,6.062 6.85,7.881 0,0 4.479,1.631 4.406,7.312 0,0 -0.686,0.779 -6.625,2.889 0,0 -2.219,0.701 -2.934,-0.957 0,0 -2.864,-6.13 -5.357,-5.941 l -4.681,0.38 c 0,0 -1.597,0.409 -0.421,1.689 0,0 1.603,2.131 2.258,3.403 0,0 0.191,1.087 1.697,0.856 0,0 2.089,-1.035 3.267,2.851 0,0 1.078,1.943 2.903,2.564 0,0 1.707,0.57 3.309,-0.329 0,0 7.731,-2.838 9.077,-3.844 0,0 1.672,-0.936 2.998,-0.486 0,0 2.319,0.553 3.274,-1.277 l 2.396,-3.707 c 0,0 0.526,-0.913 0.453,-2.06 0,0 0.217,-1.136 -0.741,-2.291 0,0 -0.905,-0.957 -1.048,-1.65 l -1.708,-4.014 c 0,0 -0.692,-1.072 -1.452,-1.513 l -2.28,0.167 c 0,0 1.569,4.01 2.718,5.644 0,0 1.555,2.378 1.476,3.89 0,0 -0.103,1.06 -0.521,1.502 0,0 -0.526,0.842 -0.738,1.251 0,0 -0.691,1.5 -1.252,1.833 0,0 -0.97,0.574 -1.206,0.597 0,0 -0.422,0.117 -0.109,-0.639 0,0 1.278,-2.689 1.194,-4.127 0,0 0.248,-1.498 -0.812,-2.375 0,0 -2.484,-3.921 -2.84,-5.093 0,0 -0.779,-1.568 -1.194,-1.837 0,0 -0.868,-1.141 0.533,-1.675 0,0 3.49,-0.788 4.115,-1.216 0,0 1.678,-0.508 2.768,-4.003 0,0 1.501,-4.076 1.479,-6.592 0,0 2.942,5.672 -1.75,11.44 0,0 3.713,1.095 5.249,0 0,0 4.625,-0.676 5.518,-0.922 0,0 1.163,-0.281 0.499,0.544 0,0 -1.395,1.984 -1.513,3.284 0,0 -0.09,1.035 -0.938,1.641 0,0 -2.629,1.841 -2.86,3.604 0,0 -0.562,1.697 0.599,1.291 0,0 1.574,-0.729 2.13,0.005 0,0 0.163,0.077 -0.444,0.758 0,0 -1.579,1.374 -1.697,3.218 0,0 0.292,2.128 0.85,2.812 0,0 0.711,0.986 1.835,0.673 0,0 0.298,-0.241 0.836,-0.079 0,0 0.556,-0.002 2.008,-0.504 0,0 2.201,-0.605 2.937,-0.865 0,0 2.802,-1.002 4.184,-0.932 0,0 0.899,-0.099 2.045,0.13 0,0 3.504,0.398 5.839,-2.183 0,0 1.777,-1.409 2.38,-0.041 0,0 4.263,5.72 11.163,4.213 0,0 -5.49,-2.258 -6.914,-5.333 0,0 -0.19,-2.611 -3.066,-6.237 0,0 -0.879,-1.203 -0.031,-1.516 0,0 0.491,-0.367 1.562,0.708 0,0 2.732,2.621 3.719,5.02 0,0 3.393,5.127 8.283,3.404 0,0 -3.839,-1.481 -5.643,-4.243 0,0 -1.115,-3.738 -4.863,-6.519 0,0 -0.147,-4.201 -1.895,-6.562 0,0 -0.891,-3.945 -1.131,-4.867 0,0 -0.943,-3.465 -0.937,-4.422 0,0 0.312,-4.526 -2.606,-8.049 0,0 -1.955,-3.769 -5,-6.395 0,0 -2.314,-2.859 -4.035,-4.61 0,0 -2.264,-2.654 -7.2,-6.117 0,0 -2.235,-1.625 -3.872,-3.372 0,0 -8.707,-6.267 -14.997,-1.24 0,0 -4.344,2.955 -7.972,3.87 0,0 -7.456,0.868 -10.635,6.043 0,0 -0.272,0.956 -3.277,1.32 0,0 -6.601,-0.797 -11.461,5.695 0,0 -2.258,2.204 -6.728,2.74 0,0 -7.29,-0.746 -12.036,4.843 0,0 -11.976,10.447 -19.117,3.672 0,0 -3.7,-3.503 0.53,-9.846 0,0 2.683,-3.238 7.26,-6.621 0,0 3.713,-2.616 2.011,-6.683 0,0 -0.899,-3.93 -6.464,-4.034 0,0 -6.983,-1.349 -9.807,-4.875 0,0 -3.153,11.105 9.222,10.92 0,0 3.225,0.477 2.099,3.037 0,0 -1.581,2.19 -3.703,2.987 0,0 -3.733,1.633 -5.42,7.069 0,0 -3.77,9.516 5.428,13.189 3.54,1.223 7.629,0.863 11.272,0.229 z M 42.513,80.971 c 0.499,-0.417 1.23,-0.652 1.879,-0.5 1.464,0.315 0.578,1.583 0.578,1.583 -0.593,1.109 -2.528,2.98 -2.528,2.98 -1.721,1.289 -3.084,-0.246 -3.084,-0.246 -1.275,-1.257 0.384,-1.865 0.384,-1.865 0.965,-0.392 2.771,-1.952 2.771,-1.952 z m -3.69,5.948 c 0,0 0.535,0.395 0.249,1.175 0,0 -1.366,3.739 -1.302,4.994 0,0 -3.023,0.54 -3.442,-0.952 0,0 -0.081,-0.576 0.412,-1.411 0,0 0.513,-0.779 0.646,-2.204 0,0 -0.045,-3.586 2.278,-2.636 0.461,0.258 0.825,0.633 1.159,1.034 z m 106.55,-7.588 c -0.532,-0.013 -0.667,-0.208 -0.603,-0.794 0.357,-1.629 1.663,-2.332 1.663,-2.332 2.45,-1.464 2.748,0.002 2.748,0.002 0.449,2.615 -1.618,2.944 -1.618,2.944 -0.413,0.142 -2.19,0.18 -2.19,0.18 z m 7.391,-11.678 c 0.045,-1.227 0.149,-3.954 -1.098,-4.928 -0.46,-0.366 -2.28,-2.359 -2.28,-2.359 -0.277,-0.483 -0.49,-0.513 -0.49,-0.513 -0.375,-0.036 -0.859,0.836 -0.859,0.836 -1.296,2.501 -2.589,2.196 -2.589,2.196 -0.011,-0.456 0.294,-0.965 0.294,-0.965 a 420.64,420.64 0 0 0 1.859,-3.654 c 0.189,-0.434 0.363,-1.012 0.363,-1.012 1.251,-1.939 2.43,-0.463 2.43,-0.463 0.526,1.027 3.331,4.373 3.331,4.373 0.622,0.74 0.682,1.535 0.682,1.535 0.65,4.583 -1.643,4.954 -1.643,4.954 z M 126.929,39.987 c -0.383,-0.689 -0.225,-1.392 0.16,-2.062 0.868,-1.33 1.679,0.121 1.679,0.121 2.997,4.178 0.784,10.433 0.784,10.433 -0.308,-5.757 -2.623,-8.492 -2.623,-8.492 z m 160.913,18.56 c 0,0 0.548,5.305 -1.842,9.98 0,0 -1.771,2.51 0.068,4.122 l 3.662,2.128 c 0,0 0.491,0.366 2.125,0.242 0,0 2.256,-0.559 3.009,0.438 0,0 0.656,1.917 1.475,3.497 0,0 1.67,3.83 4.429,5.057 0,0 2.198,0.504 2.863,2.411 0,0 0.711,1.338 2.129,1.397 0,0 1.061,0.336 1.761,2.695 0,0 0.383,1.526 0.364,2.696 0,0 -1.807,-0.237 -2.985,0.189 0,0 -2.893,0.972 -4.187,-1.412 0,0 -2.5,-4.281 -4.354,-3.637 0,0 -3.723,1.246 -6.354,-1.472 0,0 -3.612,-3.947 -8.716,-3.135 0,0 -5.746,1.164 -7.54,-0.162 0,0 -3.625,-1.895 -4.985,-2.365 0,0 -1.665,-0.489 -1.835,-2.311 0,0 -1.013,-2.563 -1.749,-3.417 l 2.741,-0.031 c 0,0 2.482,4.176 6.701,5.435 0,0 2.309,0.922 6.938,0.173 0,0 6.65,-1.506 12.49,4.801 0,0 0.799,1.153 1.936,0.692 0,0 -3.225,-5.503 -10.311,-6.807 0,0 -2.318,-0.493 -4.254,-0.179 0,0 -9.543,0.28 -13.97,-9.115 0,0 0.481,-8.01 -1.632,-9.907 0,0 -0.814,-0.25 -0.654,1.299 0,0 1.451,8.391 -1.274,10.016 0,0 -1.584,1.244 -4.513,0.784 0,0 -4.439,-1.061 -8.047,-0.443 0,0 -5.552,1.317 -10.321,0.708 0,0 1.239,-1.896 0.996,-4.163 0,0 -0.684,-1.623 -1.467,-0.579 0,0 -1.835,6.062 -6.851,7.881 0,0 -4.479,1.631 -4.406,7.312 0,0 0.688,0.779 6.628,2.889 0,0 2.22,0.701 2.935,-0.957 0,0 2.861,-6.13 5.355,-5.941 l 4.683,0.38 c 0,0 1.596,0.409 0.419,1.689 0,0 -1.601,2.131 -2.258,3.403 0,0 -0.189,1.087 -1.696,0.856 0,0 -2.089,-1.035 -3.269,2.851 0,0 -1.076,1.943 -2.901,2.564 0,0 -1.708,0.57 -3.309,-0.329 0,0 -7.731,-2.838 -9.076,-3.844 0,0 -1.673,-0.936 -2.998,-0.486 0,0 -2.317,0.553 -3.272,-1.277 l -2.396,-3.707 c 0,0 -0.528,-0.913 -0.454,-2.06 0,0 -0.218,-1.136 0.741,-2.291 0,0 0.906,-0.957 1.048,-1.65 l 1.709,-4.014 c 0,0 0.692,-1.072 1.451,-1.513 l 2.282,0.167 c 0,0 -1.571,4.01 -2.721,5.644 0,0 -1.555,2.378 -1.476,3.89 0,0 0.104,1.06 0.521,1.502 0,0 0.526,0.842 0.739,1.251 0,0 0.688,1.5 1.251,1.833 0,0 0.969,0.574 1.206,0.597 0,0 0.423,0.117 0.106,-0.639 0,0 -1.274,-2.689 -1.193,-4.127 0,0 -0.246,-1.498 0.812,-2.375 0,0 2.486,-3.921 2.844,-5.093 0,0 0.776,-1.568 1.192,-1.837 0,0 0.868,-1.141 -0.533,-1.675 0,0 -3.489,-0.788 -4.114,-1.216 0,0 -1.678,-0.508 -2.769,-4.003 0,0 -1.5,-4.076 -1.479,-6.592 0,0 -2.942,5.672 1.751,11.44 0,0 -3.713,1.095 -5.249,0 0,0 -4.624,-0.676 -5.52,-0.922 0,0 -1.16,-0.281 -0.498,0.544 0,0 1.394,1.984 1.514,3.284 0,0 0.088,1.035 0.938,1.641 0,0 2.629,1.841 2.858,3.604 0,0 0.563,1.697 -0.599,1.291 0,0 -1.573,-0.729 -2.129,0.005 0,0 -0.163,0.077 0.444,0.758 0,0 1.579,1.374 1.696,3.218 0,0 -0.292,2.128 -0.851,2.812 0,0 -0.71,0.986 -1.834,0.673 0,0 -0.297,-0.241 -0.838,-0.079 0,0 -0.555,-0.002 -2.007,-0.504 0,0 -2.201,-0.605 -2.937,-0.865 0,0 -2.802,-1.002 -4.185,-0.932 0,0 -0.899,-0.099 -2.045,0.13 0,0 -3.505,0.398 -5.84,-2.183 0,0 -1.777,-1.409 -2.378,-0.041 0,0 -4.264,5.72 -11.165,4.213 0,0 5.493,-2.258 6.916,-5.333 0,0 0.188,-2.611 3.064,-6.237 0,0 0.878,-1.203 0.03,-1.516 0,0 -0.49,-0.367 -1.562,0.708 0,0 -2.729,2.621 -3.717,5.02 0,0 -3.395,5.127 -8.283,3.404 0,0 3.837,-1.481 5.641,-4.243 0,0 1.115,-3.738 4.866,-6.519 0,0 0.146,-4.201 1.895,-6.562 0,0 0.892,-3.945 1.13,-4.867 0,0 0.942,-3.465 0.936,-4.422 0,0 -0.312,-4.526 2.607,-8.049 0,0 1.954,-3.769 5.002,-6.395 0,0 2.313,-2.859 4.033,-4.61 0,0 2.265,-2.654 7.201,-6.117 0,0 2.234,-1.625 3.87,-3.372 0,0 8.706,-6.267 14.998,-1.24 0,0 4.344,2.955 7.974,3.87 0,0 7.454,0.868 10.631,6.043 0,0 0.272,0.956 3.277,1.32 0,0 6.601,-0.797 11.462,5.695 0,0 2.258,2.204 6.729,2.74 0,0 7.286,-0.746 12.032,4.843 0,0 11.977,10.447 19.119,3.672 0,0 3.698,-3.503 -0.531,-9.846 0,0 -2.682,-3.238 -7.258,-6.621 0,0 -3.716,-2.616 -2.012,-6.683 0,0 0.899,-3.93 6.464,-4.034 0,0 6.983,-1.349 9.806,-4.875 0,0 3.155,11.105 -9.222,10.92 0,0 -3.226,0.477 -2.099,3.037 0,0 1.581,2.19 3.703,2.987 0,0 3.733,1.633 5.421,7.069 0,0 3.771,9.516 -5.431,13.189 -3.535,1.223 -7.623,0.863 -11.266,0.229 z m 17.71,22.424 c -0.5,-0.417 -1.231,-0.652 -1.878,-0.5 -1.466,0.315 -0.579,1.583 -0.579,1.583 0.594,1.109 2.529,2.98 2.529,2.98 1.723,1.289 3.084,-0.246 3.084,-0.246 1.273,-1.257 -0.387,-1.865 -0.387,-1.865 -0.963,-0.392 -2.769,-1.952 -2.769,-1.952 z m 3.688,5.948 c 0,0 -0.532,0.395 -0.249,1.175 0,0 1.366,3.739 1.303,4.994 0,0 3.025,0.54 3.441,-0.952 0,0 0.081,-0.576 -0.411,-1.411 0,0 -0.513,-0.779 -0.646,-2.204 0,0 0.046,-3.586 -2.277,-2.636 -0.462,0.258 -0.826,0.633 -1.161,1.034 z M 202.69,79.331 c 0.533,-0.013 0.67,-0.208 0.604,-0.794 -0.358,-1.629 -1.662,-2.332 -1.662,-2.332 -2.45,-1.464 -2.749,0.002 -2.749,0.002 -0.447,2.615 1.619,2.944 1.619,2.944 0.413,0.142 2.188,0.18 2.188,0.18 z m -7.389,-11.678 c -0.046,-1.227 -0.151,-3.954 1.098,-4.928 0.462,-0.366 2.28,-2.359 2.28,-2.359 0.277,-0.483 0.49,-0.513 0.49,-0.513 0.373,-0.036 0.86,0.836 0.86,0.836 1.294,2.501 2.589,2.196 2.589,2.196 0.01,-0.456 -0.297,-0.965 -0.297,-0.965 a 415.326,415.326 0 0 1 -1.858,-3.654 11.297,11.297 0 0 1 -0.363,-1.012 c -1.251,-1.939 -2.429,-0.463 -2.429,-0.463 -0.526,1.027 -3.33,4.373 -3.33,4.373 a 2.977,2.977 0 0 0 -0.685,1.535 c -0.647,4.583 1.645,4.954 1.645,4.954 z m 25.834,-27.666 c 0.383,-0.689 0.225,-1.392 -0.16,-2.062 -0.868,-1.33 -1.677,0.121 -1.677,0.121 -2.998,4.178 -0.785,10.433 -0.785,10.433 0.306,-5.757 2.622,-8.492 2.622,-8.492 z"
         id="path2" />
    </g>
    <path
       d="m 0,126.567 v 76.641 h 15.465 v -62.014 h 7.286 c 0,0 11.374,-0.512 11.374,9.842 0,10.354 -10.098,10.096 -10.098,10.096 H 20.32 v 17.641 L 35.788,203.21 H 53.935 L 32.336,171.873 c 0,0 17.766,-1.534 17.766,-20.835 0,-19.298 -13.421,-24.468 -31.313,-24.468 z m 226.106,35.848 c 0,0 6.772,-5.268 6.772,-15.251 0,-9.988 -7.254,-18.992 -22.7,-18.992 H 184.31 v 75.037 h 31.862 c 0,0 22.837,-0.259 22.837,-20.896 0.001,-11.98 -4.65,-16.568 -12.903,-19.898 z m -12.463,27.734 h -13.866 v -48.893 h 7.411 c 0,0 10.072,-0.756 10.072,8.031 0,8.787 -8.012,8.012 -8.012,8.012 h -4.615 v 13.172 h 9.007 c 2.361,0 9.883,1.145 9.883,9.801 -0.001,8.654 -9.88,9.877 -9.88,9.877 z M 323.628,125.06 h 14.444 v 78.149 h -14.444 z m -24.858,0 h 14.634 v 78.149 H 298.77 Z m -55.408,32.369 h 14.824 v 26.2 c 0,0 0.516,8.823 8.821,8.823 8.305,0 8.182,-8.823 8.182,-8.823 v -26.076 h 14.951 v 26.974 c 0,0 1.919,21.089 -22.751,21.089 -24.667,0 -24.027,-18.533 -24.027,-21.856 z M 145.073,125.06 v 35.438 c 0,0 -7.158,-5.495 -15.343,-5.495 -8.177,0 -21.981,5.751 -21.981,23.899 0,18.149 11.76,25.055 21.856,25.055 10.099,0 15.723,-6.648 15.723,-6.648 v 5.902 h 14.568 v -78.15 h -14.823 z m -11.25,66.11 c -0.768,0 -10.354,0.129 -10.354,-11.629 0,-11.761 10.48,-12.144 10.48,-12.144 0,0 11.761,0.383 11.761,11.887 0,11.504 -11.121,11.886 -11.887,11.886 z M 78.606,155.001 c 24.796,0 23.773,24.158 23.773,24.158 v 3.832 H 68.765 c 0,5.494 4.6,10.225 10.864,10.225 6.262,0 9.458,-6.007 9.458,-6.007 l 11.885,5.878 c -5.495,8.311 -12.908,11.631 -21.215,11.631 -25.82,0 -26.331,-21.471 -26.331,-24.154 0,-2.686 0.386,-25.563 25.18,-25.563 z m -9.587,19.169 h 18.408 c 0,0 -0.767,-8.688 -9.075,-8.688 -8.308,-0.001 -9.333,8.688 -9.333,8.688 z"
       fill="#cc2729"
       id="path3" />
  </g>
</svg>
