<?xml version="1.0" encoding="UTF-8" standalone="no"?>
<svg
   version="1.1"
   id="svg8"
   x="0"
   y="0"
   viewBox="0 0 1000 328.99999"
   xml:space="preserve"
   sodipodi:docname="sc-johnson.svg"
   width="1000"
   height="329"
   inkscape:version="1.4.2 (f4327f4, 2025-05-13)"
   xmlns:inkscape="http://www.inkscape.org/namespaces/inkscape"
   xmlns:sodipodi="http://sodipodi.sourceforge.net/DTD/sodipodi-0.dtd"
   xmlns="http://www.w3.org/2000/svg"
   xmlns:svg="http://www.w3.org/2000/svg"><defs
     id="defs1" /><sodipodi:namedview
     id="namedview1"
     pagecolor="#505050"
     bordercolor="#eeeeee"
     borderopacity="1"
     inkscape:showpageshadow="0"
     inkscape:pageopacity="0"
     inkscape:pagecheckerboard="0"
     inkscape:deskcolor="#505050"
     inkscape:zoom="0.65866997"
     inkscape:cx="583.75213"
     inkscape:cy="202.68117"
     inkscape:window-width="1920"
     inkscape:window-height="991"
     inkscape:window-x="-9"
     inkscape:window-y="-9"
     inkscape:window-maximized="1"
     inkscape:current-layer="svg8" /><style
     id="style1">.st0{fill:#df2626}.st1{fill:#010101}</style><g
     id="layer1"
     transform="matrix(0.99988464,0,0,0.99988464,-23.497602,-121.96695)"><path
       id="path4490"
       class="st0"
       d="m 23.6,340.5 c 4.8,0 9.8,0.2 14.7,0.2 h 26.4 c 7.4,0 13.5,2.9 16.6,9.8 2.7,6.1 4.7,12.7 6.6,19.2 2.7,10 6,19.7 12.9,27.6 7.6,8.7 17.1,15 27.4,20.2 15,7.6 31,12.1 47.6,14.2 20.2,2.4 40,1.1 59.3,-5.6 23.2,-8.2 41.6,-22.4 53.2,-44.5 4.7,-9 6.9,-18.7 6.9,-29 -0.2,-75.8 0,-151.6 0,-227.5 v -3.2 H 346 v 3.1 c 0,75.6 0.2,151.2 -0.2,227 -0.2,28.5 -12.6,51.4 -36,68 -15.6,11.1 -33.1,17.9 -51.6,22.6 -11.9,3.1 -24,4.8 -36.3,6.1 -17.7,1.8 -35.6,1.8 -53.4,0.6 -25.6,-1.5 -50.9,-5.2 -75.1,-13.9 -16,-5.6 -30.6,-13.2 -43.5,-24.3 -13.4,-11.9 -22.7,-26.4 -25.8,-44.7 -0.2,-0.5 -0.5,-1 -0.6,-1.5 0.1,-8.1 0.1,-16.3 0.1,-24.4 z" /><path
       id="path4492"
       class="st0"
       d="m 23.6,267.5 c 10.8,0.2 21.6,-0.2 32.4,0.5 7.9,0.5 12.3,6.3 12.6,14.3 0.2,3.7 0.5,7.4 1.3,11.1 1.3,5.8 4.8,8.4 11,8.4 6.8,0.2 10.8,-2.3 12.6,-7.9 0.6,-2.1 1.1,-4.2 1.1,-6.3 0.2,-5.8 0.3,-11.4 0,-17.3 -0.5,-7.1 -4.8,-10.8 -12.1,-10.8 -9.7,0 -19.5,-0.3 -29,-2.3 -13.1,-2.6 -22.6,-9.8 -27.4,-22.4 -1,-2.4 -1.3,-5 -1.3,-7.6 -0.2,-6.9 0.2,-14 -0.2,-21 -0.5,-12.6 5.6,-21.3 16,-27.4 7.3,-4.4 15.3,-6.1 23.7,-7.1 10,-1.3 20,-1.3 29.8,-0.3 10.5,1 20.6,3.2 29.5,9.5 9.5,6.8 14.8,16 16.4,27.4 0.6,4.8 1,9.7 1.3,14.8 -0.8,0.2 -1.5,0.3 -1.9,0.3 -9.2,0 -18.4,0 -27.4,-0.3 -6.8,-0.3 -12.7,-2.6 -15.3,-9.4 -1,-2.6 -1,-5.6 -1.5,-8.5 -0.2,-1.3 -0.2,-2.4 -0.3,-3.7 -0.8,-6 -2.4,-7.7 -8.4,-8.7 -2.4,-0.3 -4.8,-0.5 -7.3,-0.2 -4.8,0.6 -7.9,3.5 -9,8.1 -0.6,2.3 -0.8,4.5 -1,6.9 -0.2,4.5 0.2,9 0,13.5 -0.3,8.1 4.7,14 14.2,14.3 9.4,0.5 18.7,1 28.1,2.1 8.5,1 16,5 21.6,11.8 4.4,5.2 6.3,11.3 6.4,17.9 0.2,7.1 0,14.3 0,21.4 0.2,11.9 -5.5,20.8 -15.2,27.2 -7.7,5.2 -16.6,7.3 -25.8,7.9 -8.1,0.5 -16.3,0.6 -24.3,0.3 -8.9,-0.3 -17.7,-2.1 -25.8,-6 -14.3,-6.9 -22.6,-18.2 -24.2,-34.2 0,-0.6 -0.5,-1.1 -0.6,-1.8 z" /><path
       id="path4494"
       class="st1"
       d="m 692.6,450.9 c -1.8,-1.1 -3.4,-2.4 -5.3,-3.7 -0.2,1 -0.2,1.9 -0.3,2.9 h -7.3 v -37.7 h 7.6 v 14.3 c 2.1,-1.1 4,-2.7 6.1,-3.2 7.3,-1.6 12.7,2.4 13.5,9.7 0.3,3.1 0.2,6.3 -0.6,9.4 -1,4.7 -4.5,7.1 -8.9,8.4 -1.6,-0.1 -3.2,-0.1 -4.8,-0.1 z m 7.1,-13.8 c -0.3,-1.8 -0.5,-3.2 -1,-4.8 -0.6,-2.4 -2.1,-4.2 -4.8,-4.2 -2.7,-0.2 -4.8,1.1 -5.8,3.9 -1.3,3.4 -1.3,6.9 0,10.3 0.8,2.1 2.3,3.5 4.8,3.7 2.6,0.2 4.5,-1.1 5.5,-3.4 0.6,-2 0.9,-3.9 1.3,-5.5 z" /><path
       id="path4496"
       class="st1"
       d="m 966.5,450.9 c -1.5,-1 -3.2,-1.6 -4.5,-2.9 -5.6,-5 -5.5,-17.4 0.2,-22.4 4.4,-3.7 10.2,-3.4 15.6,0.8 v -14.2 h 7.7 v 37.7 h -7.4 c -0.2,-1 -0.2,-1.9 -0.3,-2.6 -2.1,1.1 -4.2,2.3 -6.3,3.4 -1.8,0.2 -3.4,0.2 -5,0.2 z m 11.8,-13.8 c -0.5,-1.9 -0.8,-4 -1.8,-6 -1.1,-2.3 -3.1,-3.4 -5.8,-3.1 -2.4,0.3 -3.7,1.8 -4.4,3.9 -1.1,3.4 -1.1,6.8 0.2,10.2 0.8,2.3 2.4,3.7 5,3.9 2.7,0.2 4.5,-1.3 5.5,-3.5 0.5,-1.7 0.8,-3.5 1.3,-5.4 z" /><path
       id="path4498"
       class="st1"
       d="m 641,450.9 c -0.3,-0.3 -0.6,-0.6 -1.1,-0.8 -3.4,-1.3 -4.8,-3.9 -4.8,-7.4 0,-3.5 1.8,-6.3 5,-7.3 3.4,-1 6.9,-1.3 10.5,-1.8 0.6,-0.2 1.3,-0.2 1.9,-0.2 0.5,-4 -0.5,-6 -3.1,-6.3 -2.6,-0.5 -4,0.6 -4.8,4 H 637 c -0.3,-2.6 0.8,-4.7 2.9,-6 5.2,-3.1 10.6,-3.1 16,-1 2.7,1.1 3.9,3.7 4,6.4 0.2,6.4 0,12.7 0,19.5 -1.8,0 -3.9,0.3 -5.8,-0.2 -0.8,-0.2 -1.3,-1.6 -1.8,-2.4 -1.9,1 -4,2.1 -6.1,3.2 -1.5,0.3 -3.3,0.3 -5.2,0.3 z m 11.9,-13.2 c -3.2,-0.6 -6.6,-0.2 -8.4,1.1 -1.5,1 -2.1,2.4 -1.6,4 0.3,1.1 1.3,2.4 2.3,2.9 2.6,1.3 5.8,0 6.8,-2.9 0.6,-1.4 0.6,-3.3 0.9,-5.1 z" /><path
       id="path4500"
       class="st1"
       d="m 351.1,450.9 c -0.5,-0.3 -0.8,-0.8 -1.3,-1 -3.1,-1.5 -4.4,-3.9 -4.5,-7.1 -0.2,-3.4 1.5,-6.1 4.5,-7.1 3.5,-1.1 7.3,-1.5 11,-2.1 0.6,-0.2 1.5,-0.2 2.1,-0.2 0.5,-3.7 -0.5,-5.6 -2.7,-6.3 -2.7,-0.8 -4.2,0.3 -5.6,3.9 h -7.4 c 0.2,-3.9 2.1,-6.1 5.5,-7.3 4,-1.5 8.1,-1.5 12.3,-0.3 3.9,1.1 5.5,4.2 5.6,7.7 0.3,6.1 0,12.4 0,18.7 h -6.8 c -0.3,-1 -0.5,-1.9 -0.6,-2.6 -1.9,1.1 -3.9,2.3 -6,3.4 -2.1,0.3 -4.2,0.3 -6.1,0.3 z m 12.6,-13.8 c -3.1,0.3 -5.2,0.3 -7.1,1 -1.3,0.3 -2.6,1.5 -3.2,2.7 -1.1,1.8 -0.2,3.9 1.6,4.8 2.3,1.3 5.6,0.6 6.8,-1.6 0.7,-1.9 1.1,-4 1.9,-6.9 z" /><path
       id="path4502"
       class="st1"
       d="m 720.5,450.9 c -0.3,-0.2 -0.8,-0.5 -1.1,-0.6 -5.5,-1.8 -7.9,-5.8 -8.2,-11.3 -0.3,-5.5 0.6,-10.8 5.8,-13.9 4.8,-2.9 10.2,-2.9 15.2,0 4.2,2.4 5.8,6.8 5.3,13.5 H 719 c -0.6,3.7 1.3,6.9 4,7.6 3.7,0.8 5.8,-0.3 7.1,-4.2 h 7.1 c -0.2,3.9 -2.6,6.8 -6.6,8.1 -0.8,0.3 -1.6,0.6 -2.4,1 -2.7,-0.2 -5.1,-0.2 -7.7,-0.2 z M 730,434 c 0,-4.4 -1.9,-6.4 -5.5,-6.3 -3.7,0.2 -5.8,2.6 -5.5,6.3 z" /><path
       id="path4504"
       class="st1"
       d="m 579.1,450.9 c -0.3,-0.2 -0.8,-0.5 -1.1,-0.6 -6.4,-2.4 -9.5,-7.6 -8.9,-15 0.6,-6.6 4.7,-11 11.4,-11.8 2.6,-0.3 5.3,-0.3 7.9,0.3 6.1,1.3 9.8,6.6 9.7,13.4 0,6.8 -3.9,11.8 -9.8,13.4 -0.5,0.2 -1,0.3 -1.5,0.6 -2.7,-0.3 -5.3,-0.3 -7.7,-0.3 z m -2.3,-14 c 0.3,1.9 0.5,3.9 1.1,5.6 0.8,2.4 2.6,3.9 5.3,3.9 2.4,0 4.4,-1.1 5.3,-3.4 1.8,-4 1.8,-8.1 0,-12.1 -1,-2.4 -3.1,-3.4 -5.6,-3.2 -2.6,0.2 -4.2,1.5 -5,3.9 -0.6,1.6 -0.8,3.4 -1.1,5.3 z" /><path
       id="path4506"
       class="st1"
       d="m 902.5,450.9 c -0.6,-0.3 -1.1,-0.8 -1.8,-1.1 -6,-2.4 -8.5,-7.4 -7.7,-15.5 0.5,-5.3 4.5,-10 10.2,-10.8 2.9,-0.5 6.1,-0.5 9,0.2 6.3,1.3 9.5,6.3 9.4,13.9 0,6.3 -3.7,11.1 -9.5,12.7 -0.5,0.2 -1,0.3 -1.5,0.6 z m 11.4,-13.8 c -0.3,-1.9 -0.6,-3.7 -1.1,-5.3 -1,-2.7 -2.9,-4.2 -5.5,-4.2 -2.6,0 -4.7,1.5 -5.6,4 -1.1,3.7 -1.3,7.4 0.3,11.1 1,2.3 2.7,3.5 5.3,3.4 2.4,0 4.4,-1.1 5.3,-3.4 0.5,-1.7 0.9,-3.7 1.3,-5.6 z" /><path
       id="path4508"
       class="st1"
       d="m 790.9,450.9 -0.6,-0.6 c -8.7,-3.5 -11.8,-15.5 -5.6,-22.9 4,-4.8 9.5,-5.3 15.3,-3.9 4.8,1.3 7.6,5.2 8.1,10.8 0.2,1.3 0.2,2.4 0.3,3.9 h -19 c -0.3,4.2 1.3,7.1 4.2,7.7 3.5,0.8 5.5,-0.3 7.1,-4.2 h 7.1 c -0.6,4.4 -3.2,7.3 -7.6,8.4 -0.6,0.2 -1.1,0.5 -1.8,0.6 -2.5,0.2 -4.9,0.2 -7.5,0.2 z m 10,-16.9 c -0.3,-4.8 -2.3,-6.6 -6.4,-6.1 -3.4,0.3 -5.2,2.9 -4.7,6.1 z" /><path
       id="path4510"
       class="st1"
       d="m 465.1,450.9 c -0.3,-0.3 -0.8,-0.6 -1.1,-0.8 -6.4,-2.4 -9.5,-7.7 -8.9,-14.8 0.6,-6.8 4.7,-10.8 11.6,-12.1 8.4,-1.5 15.3,2.4 16.9,9.7 1.8,8.4 -1.9,16.1 -10.2,17.6 -0.2,0 -0.2,0.3 -0.2,0.3 -2.8,0.1 -5.5,0.1 -8.1,0.1 z m -2.3,-13.8 c 0.5,1.9 0.6,3.9 1.3,5.8 0.8,2.4 2.7,3.5 5.2,3.5 2.5,0 4.2,-1 5.2,-3.1 1.9,-4 1.9,-8.2 0.2,-12.3 -1,-2.4 -3.1,-3.4 -5.6,-3.2 -2.6,0.2 -4.2,1.5 -5,3.7 -0.6,1.7 -0.8,3.6 -1.3,5.6 z" /><path
       id="path4512"
       class="st1"
       d="m 383,450.9 c -0.5,-0.3 -0.8,-0.6 -1.3,-0.8 -2.1,-0.8 -3.2,-2.4 -3.4,-4.5 -0.2,-4.7 -0.2,-9.5 -0.2,-14.2 V 429 h -4.8 v -5.2 h 5 c -1.5,-6.4 4.2,-5.3 7.4,-7.7 v 7.6 h 6.3 v 5.2 h -6.1 v 14 c 0,1.8 1.3,2.4 2.7,2.6 1.1,0.2 2.1,0 3.2,0 v 4.5 c -0.8,0.3 -1.6,0.6 -2.3,1 -2.1,-0.1 -4.2,-0.1 -6.5,-0.1 z" /><path
       id="path4514"
       class="st1"
       d="m 770,450.9 c -4.7,-2.1 -5.2,-6 -5,-10.5 0.2,-3.9 0,-7.6 0,-11.6 h -5 v -5 h 5 c -1.5,-6.4 4.2,-5.5 7.4,-7.7 v 7.6 h 6.3 v 5.2 h -6.1 v 13.9 c 0,1.8 1.3,2.7 3.2,2.9 h 2.9 v 4.5 c -0.6,0.3 -1.5,0.6 -2.3,1 -2.1,-0.3 -4.2,-0.3 -6.4,-0.3 z" /><path
       id="path4516"
       class="st1"
       d="m 750,450.9 c -4.8,-1.8 -5.2,-5.6 -5,-10 0.2,-3.9 0,-7.7 0,-11.9 h -4.8 v -5.2 h 5 c -1.6,-6.4 4.2,-5.3 7.3,-7.7 v 7.6 h 6.1 v 5.2 h -6 v 13.9 c 0,1.6 1.1,2.6 2.7,2.7 1,0.2 2.1,0 3.2,0 v 4.5 c -0.6,0.3 -1.3,0.6 -2.1,1 -2.1,-0.1 -4.2,-0.1 -6.4,-0.1 z" /><path
       id="path4518"
       class="st1"
       d="M 518.6,323.3 H 480.7 V 121.8 h 38.7 v 80.3 h 2.9 c 10.2,0 20.3,-0.3 30.5,0.3 13.4,1 21.8,9.8 23.2,23.1 0.2,2.1 0.3,4.2 0.3,6.3 v 91.4 c -0.5,0.2 -0.6,0.3 -1,0.3 -6.6,0.2 -13.2,0.2 -19.7,0.2 -10.3,0 -16.1,-6 -16.1,-16.3 v -76.9 c 0,-4.4 -1.9,-7.6 -5.8,-9.5 -3.7,-1.9 -7.6,-1.6 -11,0.8 -2.4,1.8 -3.7,4.2 -4,7.1 -0.2,1.1 -0.2,2.3 -0.2,3.5 v 88 c 0.1,0.8 0.1,1.7 0.1,2.9 z" /><path
       id="path4520"
       class="st0"
       d="m 278.2,222.2 c -7.3,0 -14.5,0.2 -21.6,0 -4.8,0 -9.8,-0.2 -14.7,-0.6 -8.7,-1.1 -12.9,-6 -13.1,-14.7 0,-1.3 -0.2,-2.4 -0.3,-3.7 -1.8,-10.3 -10,-11.4 -17.1,-9.4 -4.7,1.3 -6.1,5.5 -6.9,9.8 -0.2,1.3 -0.3,2.6 -0.3,4 v 79 c 0,1.5 0,3.1 0.3,4.5 1.6,8.5 9.4,12.6 17.4,9.2 5,-2.1 6.1,-6.8 6.8,-11.4 0.3,-2.3 0.2,-4.7 0.3,-6.9 0.6,-7.1 5.2,-12.3 12.4,-13.7 1.6,-0.3 3.2,-0.5 5,-0.5 9.8,-0.2 19.7,-0.3 29.5,-0.3 h 2.9 c 0,11.1 0.3,22.1 -4.5,32.2 -5,10.3 -14.2,16.1 -24.7,19.7 -7.9,2.6 -16.1,3.5 -24.5,4.2 -9.8,0.6 -19.7,0.3 -29.3,-1.1 -10.5,-1.5 -20.3,-4.5 -28.4,-11.6 -7.6,-6.6 -11.9,-14.8 -11.9,-25 v -75.5 c 0,-13.4 6.3,-23.2 17.3,-30.2 7.1,-4.5 15.2,-6.4 23.5,-7.6 12.3,-1.6 24.5,-1.6 36.8,-0.3 8.9,1 17.4,2.9 25.2,7.3 13.1,7.1 19.8,18.1 20.2,32.9 -0.3,2.6 -0.3,6 -0.3,9.7 z" /><path
       id="path4522"
       class="st1"
       d="m 913.5,262.6 c 0,10.2 0.2,20.3 0,30.5 -0.2,10.5 -5.2,18.2 -14,23.5 -7.7,4.7 -16.4,6.6 -25.3,7.3 -9.5,0.8 -18.9,0.6 -28.4,-1 -9.4,-1.6 -18.2,-4.7 -25.2,-11.8 -4.8,-5 -7.4,-11.3 -7.4,-18.2 -0.2,-20.3 -0.2,-40.5 0,-60.8 0.2,-10.6 5.5,-18.4 14.5,-23.7 7.3,-4.2 15.2,-6.1 23.4,-6.9 10.3,-1 20.8,-1 31.1,1 8.2,1.6 16,4.2 22.3,9.8 5.5,5 8.7,11.1 8.9,18.5 0.2,10.7 0.1,21.3 0.1,31.8 z m -40,-0.5 v -34 c 0,-7.1 -5.8,-11.9 -12.4,-10.3 -5.2,1.3 -8.5,5.5 -8.5,11.3 v 36.4 c 0,10 -0.2,20 0,30 0.2,6.6 5,10.8 11.6,10.6 5.5,-0.2 9.2,-4.7 9.2,-11 0.1,-10.7 0.1,-21.8 0.1,-33 z" /><path
       id="path4524"
       class="st1"
       d="m 464.3,262.8 c 0,8.9 -0.2,17.7 0,26.4 0.5,17.1 -8.7,26.4 -22.4,31.1 -8.9,3.1 -17.9,3.7 -27.2,3.7 -8.4,0 -16.8,-0.5 -24.8,-2.7 -7.1,-1.9 -13.5,-5 -18.7,-10.5 -5,-5.5 -7.3,-12.1 -7.3,-19.3 -0.2,-18.9 0,-37.7 0,-56.4 0,-13.7 6.4,-23.2 18.9,-28.7 6.9,-3.1 14.2,-4.5 21.8,-5 10.3,-0.6 20.8,-0.6 31,1.6 8.2,1.8 16,4.8 21.8,11.1 5.2,5.5 7.1,12.1 7.3,19.3 -0.4,9.9 -0.4,19.7 -0.4,29.4 z M 424.1,262 v -33.5 c 0,-6.4 -4.2,-11.1 -10,-11.1 -6,0 -11,5.2 -11,11.3 v 66.6 c 0,0.8 0,1.5 0.2,2.3 1.1,5.6 6.3,9.4 12.1,8.7 5,-0.5 8.5,-4.8 8.5,-10.6 0.2,-11.1 0.2,-22.4 0.2,-33.7 z" /><path
       id="path4526"
       class="st1"
       d="M 965.7,323.3 H 931.2 V 202.1 c 0.8,0 1.6,-0.2 2.4,-0.2 21,0 41.9,-0.2 63,0 16.8,0.3 26.6,10.6 26.8,26.6 0.3,31 0.2,61.9 0.2,92.9 0,0.5 0,1.1 -0.2,1.9 h -10.2 c -3.5,0 -7.1,0.2 -10.8,0.2 -10.2,-0.2 -16,-6.1 -16,-16.3 v -76.7 c 0,-5.8 -3.1,-9.5 -8.7,-10.8 -5.6,-1.3 -11.4,2.9 -11.9,8.7 -0.2,1.3 -0.2,2.7 -0.2,4 v 87.9 c 0.1,1 0.1,2 0.1,3 z" /><path
       id="path4528"
       class="st1"
       d="M 629.1,323.3 H 594.8 V 202.1 c 0.6,0 1.3,-0.2 2.1,-0.2 21.1,0 42.2,-0.2 63.5,0 15.2,0.2 24.8,9.2 26.3,23.9 0.2,1.9 0.3,4 0.3,6 v 91.6 h -12.9 c -3.4,0 -6.6,0.3 -10,0 -8.7,-0.8 -13.9,-6.4 -13.9,-15.2 v -77.7 c 0,-5.5 -3.2,-9.4 -8.4,-10.6 -6.1,-1.5 -11.8,2.7 -12.6,8.9 -0.2,1.1 -0.2,2.3 -0.2,3.5 v 88 c 0.1,0.9 0.1,1.8 0.1,3 z" /><path
       id="path4530"
       class="st1"
       d="m 797.2,243 c -9,0 -17.3,0.3 -25.6,-0.2 -7.1,-0.5 -11.1,-5.3 -11.3,-12.4 0,-2.3 -0.3,-4.7 -1,-6.9 -0.3,-1.3 -1.3,-2.7 -2.4,-3.5 -7.6,-5 -17.1,-0.2 -17.4,8.9 -0.2,4.8 -0.2,9.7 0,14.5 0.2,5.5 4.8,9.2 11.1,9.5 8.2,0.5 16.6,0.8 24.8,2.1 11,1.8 18.2,9.5 19.8,20 0.6,4.7 0.2,9.5 0.2,14.2 0,3.7 0.3,7.4 -0.2,11 -1.3,8.4 -6.4,14.2 -13.7,18.2 -6.4,3.5 -13.5,4.8 -20.8,5.3 -9.5,0.8 -18.9,0.6 -28.2,-1.6 -12.7,-2.9 -22.7,-9.5 -27.1,-22.4 -2.4,-6.8 -2.3,-14 -2.3,-21.1 0.2,-0.2 0.3,-0.3 0.5,-0.3 8.4,0 16.6,-0.2 25,0.3 6.4,0.3 10.2,4.8 10.5,11.4 0.2,3.1 0.5,6.1 1.1,9.2 1,4.2 3.7,6.3 7.6,6.6 6,0.3 9.2,-1.1 10.8,-5.5 0.6,-1.8 1.1,-3.9 1.1,-5.8 0.2,-4.7 0.2,-9.4 0,-14 -0.3,-5.5 -3.7,-8.1 -9.2,-8.4 -7.9,-0.5 -15.8,-0.6 -23.5,-1.9 -11.3,-1.9 -19.2,-8.4 -22.4,-19.7 -0.5,-1.5 -0.5,-2.9 -0.6,-4.4 0,-5.6 0.2,-11.3 0,-16.9 -0.2,-9.2 4,-15.8 11.3,-20.6 6.3,-4.2 13.4,-5.8 20.6,-6.6 11.4,-1.1 22.7,-1.3 33.9,1.5 13.5,3.5 22.9,11.4 26,25.6 0.8,4.7 0.9,9.3 1.4,13.9 z" /><path
       id="path4532"
       class="st1"
       d="m 652.8,390.3 h -7.4 V 364 h 7.1 c 0.2,1 0.3,2.1 0.5,3.7 2.4,-3.2 5.6,-4.4 9,-4.4 3.5,0.2 6.4,1.3 8.1,5 3.1,-4.2 6.9,-5.6 11.6,-4.7 4.5,0.8 7.1,3.5 7.3,8.2 0.3,6.1 0,12.1 0,18.2 h -7.6 v -7.6 c 0,-3.2 0,-6.3 -0.2,-9.5 -0.2,-2.7 -1.8,-4.2 -4.4,-4.5 -2.6,-0.2 -4.8,1.1 -5.3,3.9 -0.5,2.4 -0.5,4.8 -0.5,7.1 V 390 h -7.6 v -4 c 0,-4.4 0,-8.7 -0.2,-12.9 -0.2,-2.7 -1.9,-4.4 -4.4,-4.5 -2.4,-0.2 -4.7,1.3 -5.3,3.7 -0.3,1.5 -0.5,2.9 -0.5,4.4 v 13.1 c 0.1,0 -0.1,0.2 -0.2,0.5 z" /><path
       id="path4534"
       class="st1"
       d="m 491.2,390.3 h -7.6 v -11.9 c 0,-1.8 0,-3.5 -0.2,-5.2 -0.3,-2.7 -2.1,-4.4 -4.5,-4.5 -2.4,-0.2 -4.7,1.5 -5.2,3.9 -0.3,1.6 -0.5,3.4 -0.5,5.2 v 12.6 h -7.6 v -26.1 h 6.9 c 0.2,1 0.3,2.1 0.6,3.5 2.4,-3.1 5.5,-4.4 9,-4.2 3.5,0.2 6.4,1.3 8.1,5 2.9,-4.2 6.9,-5.5 11.6,-4.7 4.5,0.8 6.9,3.4 7.3,7.9 0.3,6.1 0,12.3 0,18.5 h -7.6 v -10.5 c 0,-2.1 0,-4.4 -0.2,-6.4 -0.2,-2.9 -1.8,-4.5 -4.5,-4.7 -2.7,-0.2 -5,1.3 -5.3,4 -0.3,2.4 -0.3,4.8 -0.5,7.3 0,3.4 0.2,6.8 0.2,10.3 z" /><path
       id="path4536"
       class="st1"
       d="m 868.6,430.8 c -1.9,6 -3.9,11.8 -5.8,17.4 -0.5,1.5 -1,2.1 -2.7,2.1 -6.1,0 -6.1,0 -8.2,-6 -2.4,-6.8 -4.8,-13.5 -7.3,-20.5 h 8.2 c 1.8,6.3 3.5,12.7 5.5,19.8 0.6,-1.9 1.1,-3.4 1.6,-4.7 1.5,-4.5 2.9,-9.2 4.5,-13.7 0.2,-0.6 1.3,-1.5 1.9,-1.5 7.1,-0.5 7.1,-0.3 9,6.4 l 3.9,12.6 c 0,0.2 0.2,0.3 0.5,0.6 1.6,-6 3.4,-11.8 5,-17.7 0.5,-1.6 1,-2.3 2.7,-2.1 1.6,0.2 3.2,0 5,0 -0.3,1.1 -0.6,1.9 -1,2.9 -2.4,7.3 -5,14.3 -7.4,21.6 -0.5,1.5 -1.1,2.1 -2.7,2.1 -6.3,0 -6.1,0 -8.1,-6 -1.5,-4.4 -2.7,-8.7 -4.2,-13.1 0.1,0.3 0,0.1 -0.4,-0.2 z" /><path
       id="path4538"
       class="st1"
       d="m 430.9,431 c -1.8,5.2 -3.5,10.5 -5.3,15.6 -1.1,3.5 -1.1,3.5 -5.2,3.5 -1,0 -2.1,0.2 -3.1,0 -0.6,-0.2 -1.5,-0.6 -1.8,-1.3 -3.1,-8.2 -6,-16.6 -9,-25.3 2.7,0 5.2,-0.2 7.6,0.2 0.5,0 1,1.1 1.3,1.8 1.5,5.3 2.9,10.6 4.4,16.1 0.2,0.5 0.3,1.1 0.6,2.1 2.3,-6.9 4.4,-13.4 6.4,-20 h 8.5 c 1.9,6.4 3.9,12.9 6,19.3 h 0.5 c 1.8,-6.4 3.5,-12.9 5.5,-19.3 h 7.1 c -0.5,1.3 -0.8,2.4 -1.1,3.5 -2.4,7.1 -4.8,14 -7.3,21.1 -0.5,1.3 -1,1.8 -2.4,1.8 -6.4,0 -6.4,0 -8.2,-6 -1.5,-4.4 -2.7,-8.9 -4.2,-13.2 0,0.1 -0.1,0.1 -0.3,0.1 z" /><path
       id="path4540"
       class="st1"
       d="m 403.7,390.3 h -9 c -0.8,-2.3 -1.6,-4.7 -2.7,-7.1 -0.3,-0.6 -1.3,-1.5 -2.1,-1.5 -4.5,-0.2 -9,0 -13.5,-0.2 -1.3,0 -1.9,0.5 -2.3,1.6 -0.8,2.3 -1.6,4.5 -2.6,6.8 h -8.1 c 0.8,-1.9 1.5,-3.7 2.1,-5.5 4,-10.2 8.2,-20.3 12.3,-30.5 0.6,-1.5 1.3,-2.1 2.9,-1.9 2.4,0.2 5.3,-0.6 7.1,0.5 1.6,1 2.1,4 2.9,6.1 4.2,10.8 8.6,21.1 13,31.7 z M 389.1,376 c -2.1,-5.8 -3.9,-11.4 -6.1,-17.6 -2.3,6.3 -4.2,11.9 -6.3,17.7 h 10 c 0.8,-0.1 1.5,-0.1 2.4,-0.1 z" /><path
       id="path4542"
       class="st1"
       d="m 702.9,387.6 v 12.9 h -7.6 v -36.3 h 7.3 c 0,1.1 0.2,2.1 0.2,3.4 0.3,-0.3 0.6,-0.5 1,-0.8 5.3,-5.6 14.7,-4.2 17.9,2.7 2.4,5.3 2.1,10.8 -0.6,15.8 -4,6.5 -11.6,7.4 -18.2,2.3 z m -0.5,-10.8 c 0.3,2.1 0.3,3.5 0.8,5 0.8,2.9 2.6,4.5 5.2,4.7 2.6,0.2 4.7,-1.3 5.8,-4.2 1.3,-3.5 1.3,-7.1 -0.3,-10.6 -1,-1.9 -2.4,-3.2 -4.8,-3.2 -2.4,0 -4,1 -5,3.1 -0.9,1.5 -1.2,3.6 -1.7,5.2 z" /><path
       id="path4544"
       class="st1"
       d="m 516.2,435 c 2.7,-3.2 5.6,-6.3 8.4,-9.5 1.1,-1.3 2.1,-1.8 3.9,-1.8 2.1,0.2 4.4,0 6.9,0 -3.9,4 -7.3,7.6 -10.8,11.3 3.9,5 7.7,10 11.9,15.3 -3.4,0 -6.1,0.2 -8.9,0 -0.6,0 -1.5,-0.8 -1.9,-1.6 -3.1,-4.2 -6.1,-8.4 -9.7,-13.2 v 14.7 h -7.6 v -37.7 h 7.4 v 22.2 c -0.1,0.1 0.2,0.1 0.4,0.3 z" /><path
       id="path4546"
       class="st1"
       d="m 436.4,371.5 c 0.2,-3.5 1.8,-5.8 4.7,-6.9 4.5,-1.9 9,-1.9 13.7,-0.5 3.2,1.1 4.8,3.9 4.8,7.1 0.2,6.3 0,12.6 0,19 h -6.8 c -0.2,-0.8 -0.5,-1.8 -0.6,-3.1 -3.1,3.7 -6.9,4.4 -11.3,3.4 -3.5,-0.6 -5.8,-3.1 -6.3,-6.3 -0.5,-4.2 0.6,-7.3 4.4,-8.5 3.2,-1.1 6.8,-1.3 10.2,-1.9 1,-0.2 1.9,0 2.9,0 0.3,-4.2 -0.5,-6 -2.9,-6.4 -2.9,-0.5 -4.4,0.5 -5.2,4 -2.5,0.1 -4.9,0.1 -7.6,0.1 z m 16.1,6.2 c -3.2,-0.3 -6,-0.3 -8.4,1.1 -1,0.6 -1.8,1.9 -1.9,3.1 -0.5,2.1 0.8,3.4 2.7,4.2 2.3,0.8 5,-0.2 6,-2.3 0.8,-1.7 1.1,-3.8 1.6,-6.1 z" /><path
       id="path4548"
       class="st1"
       d="m 742.7,387.3 c -3.4,4 -7.7,4.5 -12.3,3.2 -2.7,-0.8 -4.7,-2.6 -5.2,-5.5 -0.5,-3.1 -0.5,-6.3 2.7,-7.9 2.7,-1.5 6,-2.1 9,-2.9 1.8,-0.3 3.7,0 5.6,0 0.3,-4.2 -0.8,-6.1 -3.2,-6.4 -2.9,-0.3 -4,0.5 -5,4 h -7.6 c -0.2,-3.1 1.3,-5.3 3.9,-6.6 4.8,-2.4 9.8,-2.4 14.7,-0.6 2.6,1 4.2,3.2 4.4,6 0.3,5.5 0.3,11 0.5,16.4 0,1.1 0.2,2.3 0.2,3.5 h -7.3 c 0.3,-1.1 -0.1,-2.1 -0.4,-3.2 z m 0.5,-9.9 c -2.6,0.3 -4.8,0.3 -6.9,1 -2.9,0.8 -4.2,3.2 -3.2,5.6 1,2.3 4.4,3.4 6.6,1.8 1.1,-0.6 2.1,-2.1 2.7,-3.4 0.5,-1.3 0.5,-2.9 0.8,-5 z" /><path
       id="path4550"
       class="st1"
       d="m 763.5,364.2 c 0.2,1 0.3,2.1 0.5,3.4 3.1,-3.2 6.6,-4.7 11,-3.7 4.7,1 6.9,3.2 7.3,8.1 0.2,6.1 0,12.1 0,18.4 h -7.7 v -16.1 c -0.2,-4.4 -3.9,-7.1 -7.3,-4.7 -1.5,1.1 -2.7,3.2 -2.9,5.2 -0.5,3.4 -0.3,6.8 -0.3,10.2 v 5.6 h -7.6 v -26.1 c 2,-0.3 4.4,-0.3 7,-0.3 z" /><path
       id="path4552"
       class="st1"
       d="m 626.5,391 c -9,0 -14.3,-5.3 -14.3,-13.9 0,-8.4 6,-14 14.8,-14 8.7,0.2 14.2,5.5 14.2,13.9 -0.1,8.8 -5.5,14 -14.7,14 z m 6.7,-13.7 c -0.5,-1.9 -0.6,-4 -1.3,-5.8 -1,-2.3 -2.7,-3.5 -5.3,-3.5 -2.7,0 -4.5,1.3 -5.3,3.5 -1.5,3.7 -1.3,7.6 0,11.4 0.8,2.4 2.7,3.7 5.3,3.7 2.6,0 4.5,-1.3 5.3,-3.7 0.7,-1.8 1,-3.7 1.3,-5.6 z" /><path
       id="path4554"
       class="st1"
       d="m 569.2,363.9 c -3.2,7.9 -6.3,15.3 -9.4,22.9 -1.6,3.9 -3.4,7.7 -4.8,11.8 -0.5,1.5 -1.3,2.1 -2.9,1.9 -1.6,-0.2 -3.2,0 -5.3,0 1.1,-2.9 2.4,-5.3 3.4,-8.1 0.3,-1.1 0.5,-2.6 0,-3.7 -3.1,-7.3 -6.4,-14.3 -9.7,-21.6 -0.5,-1 -0.8,-1.9 -1.5,-3.2 2.7,0 5.2,-0.2 7.6,0.2 0.6,0 1.3,1.1 1.6,1.8 2.1,5.8 4.2,11.6 6.4,17.9 1.1,-3.2 2.1,-6.1 3.2,-8.9 1.1,-3.1 1.9,-6.1 3.2,-9.2 0.3,-0.8 1.5,-1.5 2.3,-1.6 1.9,-0.4 3.7,-0.2 5.9,-0.2 z" /><path
       id="path4556"
       class="st1"
       d="m 783.8,364.2 c 0.3,-0.2 0.5,-0.2 0.5,-0.2 2.6,0 5.6,-0.8 7.6,0.3 1.6,1.1 2.1,4.4 2.9,6.6 1.5,4 2.9,8.1 4.4,12.1 0,0 0.2,0 0.3,0.2 2.3,-6.4 4.5,-12.9 6.8,-19.2 h 7.6 c -2.1,5.3 -4.2,10.5 -6.3,15.6 -2.6,6.3 -5.3,12.4 -7.7,18.7 -0.6,1.8 -1.6,2.4 -3.4,2.3 -1.5,-0.2 -3.1,0 -4.8,0 1.1,-2.7 2.4,-5.3 3.2,-7.9 0.3,-1.1 0.5,-2.7 0,-3.9 -3.2,-7.4 -6.6,-14.8 -10,-22.2 -0.6,-0.9 -0.7,-1.6 -1.1,-2.4 z" /><path
       id="path4558"
       class="st1"
       d="m 610.2,372.9 h -7.4 c -0.6,-2.3 -1,-4.8 -4.2,-5 -3.1,-0.2 -5.5,1 -6,4 -0.5,3.4 -0.5,6.9 0,10.3 0.5,3.1 2.6,4.5 5.2,4.4 2.6,0 3.7,-1.1 4.7,-4.5 0.2,-0.3 0.2,-0.6 0.3,-1.1 h 8.1 c -0.6,1.9 -1,3.9 -1.9,5.3 -3.5,5 -9,5.3 -14.3,4.7 -5,-0.6 -8.5,-3.4 -10,-8.5 -2.4,-8.7 1.5,-16.6 9,-18.5 3.4,-1 6.8,-0.8 10,0.3 3.9,1.2 6,4.3 6.5,8.6 z" /><path
       id="path4560"
       class="st1"
       d="m 420.4,390.2 v -21.3 h -5.2 v -5.2 h 4.8 c 0.3,-3.9 0,-8.1 3.7,-10.3 3.2,-1.9 6.9,-1.3 10.5,-1 v 4.4 c -1.9,0.6 -4.2,0.8 -5.6,1.9 -1,0.8 -0.6,3.1 -1,5 h 6.1 v 5 h -5.8 v 21.4 c -2.5,0.1 -4.9,0.1 -7.5,0.1 z" /><path
       id="path4562"
       class="st1"
       d="m 554.6,450.1 v -21.3 h -5 v -5.2 h 4.7 c 0.2,-1.9 0.3,-3.7 0.6,-5.5 0.8,-4 3.4,-6.1 7.4,-6.3 h 1.8 c 4.8,0 4.8,0 4.4,5 -6.4,1 -6.4,1 -6.1,6.6 1,0 1.9,0.2 2.9,0.2 h 2.9 v 5.2 h -5.8 v 21.3 z" /><path
       id="path4564"
       class="st1"
       d="m 945.9,412.4 h 7.4 v 37.7 h -7.4 z" /><path
       id="path4566"
       class="st1"
       d="m 536.7,390.3 h -7.4 v -37.7 h 7.4 z" /><path
       id="path4568"
       class="st1"
       d="m 495.7,450.1 h -7.4 v -26.3 h 7.3 v 4.7 c 2.6,-3.7 5.5,-5.5 9.5,-4.7 v 6.3 h -1.9 c -4.5,0 -6.9,2.3 -6.9,6.9 0,4.2 0,8.5 -0.2,12.7 -0.2,0.1 -0.2,0.1 -0.4,0.4 z" /><path
       id="path4570"
       class="st1"
       d="m 609.7,450.1 h -7.6 v -26.3 h 7.4 v 4.2 c 3.5,-3.9 4.8,-4.5 9.5,-4.2 v 6.3 h -1.6 c -5,-0.2 -7.4,2.3 -7.6,7.4 -0.1,4.3 -0.1,8.3 -0.1,12.6 z" /><path
       id="path4572"
       class="st1"
       d="m 926,423.9 h 6.9 c 0.2,1.3 0.3,2.6 0.5,4.5 2.4,-3.7 5.3,-5 9.2,-4.4 v 6.1 c -0.2,0.2 -0.3,0.2 -0.5,0.2 -6.1,-0.3 -8.5,1.8 -8.7,8.1 0,3.9 0,7.6 -0.2,11.4 0,0 0,0.2 -0.2,0.3 h -7.4 c 0.4,-8.7 0.4,-17.4 0.4,-26.2 z" /><path
       id="path4574"
       class="st1"
       d="m 821.4,450.1 h -7.6 v -26.3 h 6.9 c 0.2,1.3 0.2,2.6 0.3,4.2 4,-4 5,-4.4 9.2,-4.2 v 6.3 h -1 c -5.5,-0.2 -7.9,1.9 -7.9,7.4 0.1,4.3 0.1,8.5 0.1,12.6 z" /><path
       id="path4576"
       class="st1"
       d="m 522.8,390.3 h -7.3 V 364 h 7.3 z" /><path
       id="path4578"
       class="st1"
       d="m 515.2,358.4 v -5.8 h 7.7 v 5.8 z" /></g></svg>
